<svg id="Слой_1" data-name="Слой 1" xmlns="http://www.w3.org/2000/svg" viewBox="0 0 480 360"><defs><style>.cls-1{fill:#200a4c;}.cls-2{fill:#27105e;}.cls-3{fill:#82bc1e;}.cls-4{fill:#96eb1a;}.cls-5{opacity:0.5;}.cls-6{fill:#7224aa;}.cls-7{fill:#311589;}.cls-8{fill:#441e9e;}</style></defs><rect class="cls-1" width="480" height="360"></rect><polygon class="cls-2" points="480 360 0 360 480 0 480 360"></polygon><path class="cls-3" d="M51.84,164.64h7.68v30.72H51.84ZM59.52,157h23v7.68h-23Zm0,38.4h23V203h-23Zm7.68-23h23v23H82.56V180H67.2Z"></path><path class="cls-3" d="M97.92,164.64h7.68v23h23v-23h7.68V203h-7.68v-7.68h-23V203H97.92ZM105.6,157h23v7.68h-23Z"></path><path class="cls-3" d="M144,157h7.68v7.68h7.68v7.68h-7.68V203H144Zm15.36,15.36H167V180h-7.68Zm7.68-7.68h7.68V157h7.68V203h-7.68V172.32H167Z"></path><path class="cls-3" d="M190.08,157h38.4v7.68H197.76v7.68h23V180h-23v15.36h30.72V203h-38.4Z"></path><path class="cls-3" d="M259.2,164.64h7.68v30.72H259.2Zm7.68-7.68h23v7.68h-23Zm0,38.4h23V203h-23Zm23-30.72h7.68v30.72h-7.68Z"></path><path class="cls-3" d="M305.28,157H313v30.72h-7.68ZM313,187.68h7.68v7.68H313Zm7.68,7.68h7.68V203h-7.68Zm7.68-7.68H336v7.68h-7.68ZM336,157h7.68v30.72H336Z"></path><path class="cls-3" d="M351.36,157h38.4v7.68H359v7.68h23V180H359v15.36h30.72V203h-38.4Z"></path><path class="cls-3" d="M397.44,157h30.72v7.68h-23v23h23v7.68h-23V203h-7.68Zm30.72,7.68h7.68v23h-7.68Zm0,30.72h7.68V203h-7.68Z"></path><path class="cls-4" d="M46.63,164.64h7.68v30.72H46.63ZM54.31,157h23v7.68h-23Zm0,38.4h23V203h-23Zm7.68-23H85v23H77.35V180H62Z"></path><path class="cls-4" d="M92.71,164.64h7.68v23h23v-23h7.68V203h-7.68v-7.68h-23V203H92.71Zm7.68-7.68h23v7.68h-23Z"></path><path class="cls-4" d="M138.78,157h7.69v7.68h7.68v7.68h-7.68V203h-7.69Zm15.37,15.36h7.67V180h-7.67Zm7.67-7.68h7.69V157h7.68V203h-7.68V172.32h-7.69Z"></path><path class="cls-4" d="M184.86,157h38.4v7.68H192.54v7.68h23V180h-23v15.36h30.72V203h-38.4Z"></path><path class="cls-4" d="M254,164.64h7.68v30.72H254Zm7.68-7.68h23v7.68h-23Zm0,38.4h23V203h-23Zm23-30.72h7.68v30.72H284.7Z"></path><path class="cls-4" d="M300.06,157h7.68v30.72h-7.68Zm7.68,30.72h7.68v7.68h-7.68Zm7.68,7.68h7.68V203h-7.68Zm7.68-7.68h7.68v7.68H323.1ZM330.78,157h7.68v30.72h-7.68Z"></path><path class="cls-4" d="M346.14,157h38.4v7.68H353.82v7.68h23V180h-23v15.36h30.72V203h-38.4Z"></path><path class="cls-4" d="M392.22,157h30.72v7.68h-23v23h23v7.68h-23V203h-7.68Zm30.72,7.68h7.68v23h-7.68Zm0,30.72h7.68V203h-7.68Z"></path><g class="cls-5"><polygon class="cls-6" points="371.63 47.84 384.18 26.1 359.08 26.1 371.63 47.84"></polygon><polygon class="cls-6" points="407.12 47.84 419.67 26.1 394.57 26.1 407.12 47.84"></polygon><polygon class="cls-6" points="442.61 47.84 455.16 26.1 430.06 26.1 442.61 47.84"></polygon></g><g class="cls-5"><circle class="cls-6" cx="39.07" cy="321.89" r="12.15"></circle><circle class="cls-6" cx="78.06" cy="321.89" r="12.15"></circle><circle class="cls-6" cx="117.37" cy="321.89" r="12.15"></circle></g><rect class="cls-7" x="38.05" y="102.56" width="133.47" height="12"></rect><rect class="cls-7" x="85.77" y="65.16" width="35.29" height="12"></rect><rect class="cls-7" x="150.3" y="65.16" width="87.96" height="12"></rect><rect class="cls-7" x="362.98" y="255.91" width="87.96" height="12"></rect><rect class="cls-7" x="317.04" y="255.91" width="28.24" height="12"></rect><rect class="cls-7" x="247.39" y="290.73" width="153.3" height="12"></rect><rect class="cls-8" x="28.96" y="102.56" width="133.47" height="12"></rect><rect class="cls-8" x="76.68" y="65.16" width="35.29" height="12"></rect><rect class="cls-8" x="141.21" y="65.16" width="87.96" height="12"></rect><rect class="cls-8" x="353.89" y="255.91" width="87.96" height="12"></rect><rect class="cls-8" x="307.96" y="255.91" width="28.24" height="12"></rect><rect class="cls-8" x="238.3" y="290.73" width="153.3" height="12"></rect></svg>
