<svg xmlns="http://www.w3.org/2000/svg" viewBox="0 0 1200 900"><defs><style>.cls-1{fill:#383c42;}.cls-2{fill:#ffb261;}.cls-3{fill:#2eeced;}.cls-4{fill:#fffa81;}.cls-5{fill:#dcffcc;}.cls-6{fill:#d39eff;}.cls-7{fill:#ffe0f0;}.cls-8{fill:#82ffcb;}.cls-9{fill:#e99eff;}</style></defs><title>Planet 2</title><g id="Слой_2" data-name="Слой 2"><g id="Layer_1" data-name="Layer 1"><rect class="cls-1" width="1200" height="900"/><path class="cls-2" d="M1200,900H0V764.36c282.25-272.37,987.87-212.13,1200,0Z"/><rect class="cls-3" x="43.51" y="563.52" width="43.51" height="336.48"/><polygon class="cls-4" points="65.27 541.59 43.51 563.52 65.27 585.45 87.02 563.52 65.27 541.59"/><rect class="cls-4" x="87.02" y="642.96" width="43.51" height="257.04"/><polygon class="cls-5" points="108.78 621.03 87.02 642.96 108.78 664.87 130.54 642.96 108.78 621.03"/><rect class="cls-6" y="479.48" width="43.51" height="420.52"/><polygon class="cls-7" points="21.76 457.57 0 479.48 21.76 501.41 43.51 479.48 21.76 457.57"/><polygon class="cls-5" points="48.07 213.16 62.15 199.01 76.22 213.16 62.15 227.31 48.07 213.16"/><polygon class="cls-3" points="260.49 166.36 274.57 152.22 288.64 166.36 274.57 180.51 260.49 166.36"/><polygon class="cls-7" points="576.73 387.26 590.8 373.12 604.88 387.26 590.8 401.41 576.73 387.26"/><polygon class="cls-7" points="200.06 769.12 214.13 754.97 228.21 769.12 214.13 783.26 200.06 769.12"/><polygon class="cls-7" points="116.46 393.52 130.54 379.38 144.61 393.52 130.54 407.67 116.46 393.52"/><polygon class="cls-5" points="433.47 846.26 447.55 832.11 461.63 846.26 447.55 860.4 433.47 846.26"/><polygon class="cls-5" points="934.11 163.87 948.19 149.72 962.26 163.87 948.19 178.02 934.11 163.87"/><polygon class="cls-5" points="634.82 671.88 648.89 657.74 662.97 671.88 648.89 686.03 634.82 671.88"/><rect class="cls-8" y="664.1" width="43.51" height="235.9"/><polygon class="cls-5" points="21.76 642.17 0 664.1 21.76 686.03 43.51 664.1 21.76 642.17"/><rect class="cls-3" x="1112.98" y="563.52" width="43.51" height="336.48"/><polygon class="cls-4" points="1134.71 541.59 1156.47 563.52 1134.71 585.45 1112.95 563.52 1134.71 541.59"/><rect class="cls-6" x="1069.46" y="642.96" width="43.51" height="257.04"/><polygon class="cls-7" points="1091.2 621.03 1112.95 642.96 1091.2 664.87 1069.44 642.96 1091.2 621.03"/><rect class="cls-8" x="1156.49" y="479.48" width="43.51" height="420.52"/><polygon class="cls-5" points="1178.22 457.57 1199.98 479.48 1178.22 501.41 1156.47 479.48 1178.22 457.57"/><polygon class="cls-9" points="1079.35 511.64 1065.28 497.5 1079.35 483.35 1093.43 497.5 1079.35 511.64"/><polygon class="cls-5" points="982.27 724.09 968.19 709.95 982.27 695.8 996.35 709.95 982.27 724.09"/><polygon class="cls-5" points="877.27 827.77 863.2 813.63 877.27 799.48 891.35 813.63 877.27 827.77"/><polygon class="cls-9" points="691.19 855.78 677.11 841.63 691.19 827.49 705.26 841.63 691.19 855.78"/><polygon class="cls-7" points="1112.98 227.31 1098.9 213.16 1112.98 199.01 1127.05 213.16 1112.98 227.31"/><rect class="cls-4" x="1069.46" y="754.97" width="43.51" height="145.03"/><polygon class="cls-5" points="1091.2 733.04 1112.95 754.97 1091.2 776.9 1069.44 754.97 1091.2 733.04"/></g></g></svg>