<svg width="486" height="400" viewBox="0 0 486 400" fill="none" xmlns="http://www.w3.org/2000/svg">
<path d="M484.991 0H0V400H484.991V0Z" fill="#ABA1F7"/>
<path d="M164.893 48.7798C170.252 48.7798 174.596 45.1981 174.596 40.7798C174.596 36.3615 170.252 32.7798 164.893 32.7798C159.535 32.7798 155.191 36.3615 155.191 40.7798C155.191 45.1981 159.535 48.7798 164.893 48.7798Z" fill="#8B87E8"/>
<path d="M445.427 147.37C448.106 147.37 450.278 145.579 450.278 143.37C450.278 141.161 448.106 139.37 445.427 139.37C442.748 139.37 440.576 141.161 440.576 143.37C440.576 145.579 442.748 147.37 445.427 147.37Z" fill="#8B87E8"/>
<path d="M95.4618 139.37C100.82 139.37 105.164 135.788 105.164 131.37C105.164 126.952 100.82 123.37 95.4618 123.37C90.1035 123.37 85.7598 126.952 85.7598 131.37C85.7598 135.788 90.1035 139.37 95.4618 139.37Z" fill="#D2D2FF"/>
<path d="M402.513 108.16C421.495 108.16 436.883 95.4672 436.883 79.81C436.883 64.1527 421.495 51.46 402.513 51.46C383.531 51.46 368.143 64.1527 368.143 79.81C368.143 95.4672 383.531 108.16 402.513 108.16Z" fill="#FFF3F1"/>
<path d="M402.513 108.16C421.495 108.16 436.883 95.4672 436.883 79.81C436.883 64.1527 421.495 51.46 402.513 51.46C383.531 51.46 368.143 64.1527 368.143 79.81C368.143 95.4672 383.531 108.16 402.513 108.16Z" fill="#FFF3F1"/>
<path d="M421.874 95.3831C425.345 93.3676 427.276 90.3051 426.186 88.5427C425.096 86.7804 421.398 86.9856 417.927 89.0011C414.455 91.0165 412.524 94.079 413.614 95.8414C414.704 97.6037 418.402 97.3985 421.874 95.3831Z" fill="#D6D1FF"/>
<mask id="mask0_673_2" style="mask-type:luminance" maskUnits="userSpaceOnUse" x="368" y="51" width="69" height="58">
<path d="M402.513 108.16C421.495 108.16 436.883 95.4672 436.883 79.81C436.883 64.1527 421.495 51.46 402.513 51.46C383.531 51.46 368.143 64.1527 368.143 79.81C368.143 95.4672 383.531 108.16 402.513 108.16Z" fill="white"/>
</mask>
<g mask="url(#mask0_673_2)">
<path d="M423.663 56.48C417.067 55.83 413.744 64.48 417.945 68.64C422.145 72.8 425.17 75.93 425.015 78.42C424.623 83.5 436.482 84.71 436.843 75.42C437.204 66.13 432.178 57.31 423.663 56.48Z" fill="#D6D1FF"/>
<path d="M389.26 79.0999C400.216 79.0999 409.097 71.7708 409.097 62.7299C409.097 53.689 400.216 46.3599 389.26 46.3599C378.303 46.3599 369.422 53.689 369.422 62.7299C369.422 71.7708 378.303 79.0999 389.26 79.0999Z" fill="#D6D1FF"/>
<path d="M414.876 108.468C416.969 101.443 407.02 92.491 392.655 88.4737C378.289 84.4564 364.947 86.8949 362.854 93.9204C360.761 100.946 370.71 109.898 385.076 113.915C399.441 117.932 412.783 115.494 414.876 108.468Z" fill="#D6D1FF"/>
</g>
<path d="M374.274 119.72C387.698 119.72 398.58 110.743 398.58 99.6701C398.58 88.5968 387.698 79.6201 374.274 79.6201C360.849 79.6201 349.967 88.5968 349.967 99.6701C349.967 110.743 360.849 119.72 374.274 119.72Z" fill="#FF9ACB"/>
<path d="M72.5396 79.8199C88.4321 79.8199 101.316 69.1956 101.316 56.0899C101.316 42.9841 88.4321 32.3599 72.5396 32.3599C56.6471 32.3599 43.7637 42.9841 43.7637 56.0899C43.7637 69.1956 56.6471 79.8199 72.5396 79.8199Z" fill="#FFF3F1"/>
<path d="M72.5396 79.8199C88.4321 79.8199 101.316 69.1956 101.316 56.0899C101.316 42.9841 88.4321 32.3599 72.5396 32.3599C56.6471 32.3599 43.7637 42.9841 43.7637 56.0899C43.7637 69.1956 56.6471 79.8199 72.5396 79.8199Z" fill="#FFF3F1"/>
<path d="M80.5069 41.0001C75.1088 42.1401 75.6971 49.7301 80.5069 51.9201C85.3166 54.1101 88.8466 55.8001 89.6103 57.7901C91.1585 61.8501 100.861 59.7901 97.7126 52.4601C94.5646 45.1301 87.4635 39.5401 80.5069 41.0001Z" fill="#D6D1FF"/>
<path d="M70.877 64.5401C72.8607 64.5401 74.4688 63.2149 74.4688 61.5801C74.4688 59.9454 72.8607 58.6201 70.877 58.6201C68.8933 58.6201 67.2852 59.9454 67.2852 61.5801C67.2852 63.2149 68.8933 64.5401 70.877 64.5401Z" fill="#D6D1FF"/>
<mask id="mask1_673_2" style="mask-type:luminance" maskUnits="userSpaceOnUse" x="43" y="32" width="59" height="48">
<path d="M72.5396 79.8199C88.4321 79.8199 101.316 69.1956 101.316 56.0899C101.316 42.9841 88.4321 32.3599 72.5396 32.3599C56.6471 32.3599 43.7637 42.9841 43.7637 56.0899C43.7637 69.1956 56.6471 79.8199 72.5396 79.8199Z" fill="white"/>
</mask>
<g mask="url(#mask1_673_2)">
<path d="M53.1444 57.81C60.3553 57.81 66.2009 52.9881 66.2009 47.04C66.2009 41.0919 60.3553 36.27 53.1444 36.27C45.9335 36.27 40.0879 41.0919 40.0879 47.04C40.0879 52.9881 45.9335 57.81 53.1444 57.81Z" fill="#D6D1FF"/>
<path d="M66.801 92.0998C79.5241 92.0998 89.8382 87.2152 89.8382 81.1898C89.8382 75.1644 79.5241 70.2798 66.801 70.2798C54.0778 70.2798 43.7637 75.1644 43.7637 81.1898C43.7637 87.2152 54.0778 92.0998 66.801 92.0998Z" fill="#D6D1FF"/>
</g>
<path d="M26.6714 87.8198C29.3505 87.8198 31.5224 86.029 31.5224 83.8198C31.5224 81.6107 29.3505 79.8198 26.6714 79.8198C23.9922 79.8198 21.8203 81.6107 21.8203 83.8198C21.8203 86.029 23.9922 87.8198 26.6714 87.8198Z" fill="#D2D2FF"/>
<path d="M344.991 29.5898C350.349 29.5898 354.693 26.0081 354.693 21.5898C354.693 17.1716 350.349 13.5898 344.991 13.5898C339.633 13.5898 335.289 17.1716 335.289 21.5898C335.289 26.0081 339.633 29.5898 344.991 29.5898Z" fill="#D2D2FF"/>
<path d="M293.425 88C296.104 88 298.276 86.2091 298.276 84C298.276 81.7909 296.104 80 293.425 80C290.746 80 288.574 81.7909 288.574 84C288.574 86.2091 290.746 88 293.425 88Z" fill="#8B87E8"/>
<path d="M0 281C82.4447 257.341 167.993 245.384 253.978 245.5C332.019 245.57 409.704 255.696 484.99 275.61V400H0V281Z" fill="#FFB0A6"/>
<path d="M88.227 376.94C93.2955 367.694 96.7516 357.699 98.4555 347.36C93.8161 350.762 89.4671 354.521 85.4505 358.6C84.8047 353.418 83.661 348.306 82.0342 343.33C79.2923 347.968 76.9915 352.838 75.1601 357.88C72.1079 353.242 68.655 348.863 64.8388 344.79C64.4765 350.019 64.632 355.27 65.3032 360.47C60.288 357.144 55.0193 354.193 49.5425 351.64C51.6529 356.584 54.2196 361.333 57.2113 365.83C51.1508 364.352 44.9911 363.286 38.7773 362.64C44.6662 368.026 51.1055 372.817 57.9957 376.94H88.227Z" fill="#7C87D9"/>
<path d="M75.5011 370.74C70.5233 373.833 66.5147 378.187 63.9102 383.33H132.114C130.818 380.737 129.143 378.339 127.139 376.21C114.702 362.94 91.5921 360.49 75.5011 370.74Z" fill="#EB7A75"/>
<path d="M65.7585 370.56C60.7122 370.508 55.7282 371.643 51.234 373.867C46.7398 376.091 42.8695 379.338 39.9551 383.33H91.5619C88.6487 379.337 84.7786 376.089 80.2841 373.865C75.7897 371.64 70.8051 370.506 65.7585 370.56Z" fill="#CF576E"/>
<path d="M176.67 360.13C181.046 353.08 189.923 348.69 199.439 348.86C208.563 349.04 216.892 353.38 221.114 360.13H176.67Z" fill="#F9938F"/>
<path d="M15.957 337.08C19.0534 332.14 25.2463 329.08 31.9242 329.19C38.3234 329.31 44.155 332.35 47.0863 337.08H15.957Z" fill="#F9938F"/>
<path d="M305.791 349.79C310.807 341.7 320.974 336.67 331.883 336.87C342.339 337.07 351.886 342.04 356.655 349.79H305.791Z" fill="#F9938F"/>
<mask id="mask2_673_2" style="mask-type:luminance" maskUnits="userSpaceOnUse" x="351" y="324" width="134" height="76">
<path d="M485 324.9H351.648V400H485V324.9Z" fill="white"/>
</mask>
<g mask="url(#mask2_673_2)">
<path d="M439.216 353.55C437.533 353.34 426.634 326.71 426.634 326.71L423.538 340.13L409.305 332.72L416.148 346L401.254 344.74L411.709 357.81L439.216 353.55Z" fill="#7C87D9"/>
<path d="M391.18 385.78L396.051 361.22L409.345 360.36L413.649 386.92L391.18 385.78Z" fill="#E35F6D"/>
<path d="M409.346 360.36L427.367 351.83L439.226 374.77L413.65 386.92L409.346 360.36Z" fill="#CF576E"/>
<path d="M396.053 361.22L409.347 360.36L427.368 351.83L405.084 352.4L396.053 361.22Z" fill="#EB7A75"/>
<path d="M494.734 361.22L473.09 344.78L454.471 350.59L465.298 374.54L494.734 361.22Z" fill="#CF576E"/>
<path d="M454.471 350.59L423.579 348.51L421.422 371.53L465.298 374.54L454.471 350.59Z" fill="#E35F6D"/>
<path d="M473.09 344.78L454.47 350.59L423.578 348.51L454.098 337.61L473.09 344.78Z" fill="#EB7A75"/>
<path d="M374.986 386.92C374.986 386.92 396.826 373.69 421.432 371.53C436.129 370.213 450.949 371.226 465.309 374.53L494.745 361.21L500.938 383.03L418.367 397.03L374.986 386.92Z" fill="#FFB0A6"/>
<path d="M355.055 399.87L386.628 388.87C386.628 388.87 486.745 381.05 487.498 382.09C488.252 383.13 487.498 399.91 487.498 399.91L355.055 399.87Z" fill="#E35F6D"/>
<path d="M432.724 399.87L386.598 388.87C386.598 388.87 486.715 381.05 487.468 382.09C488.222 383.13 487.468 399.91 487.468 399.91L432.724 399.87Z" fill="#EB7A75"/>
</g>
</svg>
