<svg xmlns="http://www.w3.org/2000/svg" xmlns:xlink="http://www.w3.org/1999/xlink" viewBox="0 0 485.29 400"><defs><style>.cls-1{fill:none;}.cls-2{fill:#aba1f7;}.cls-3{fill:#8b87e8;}.cls-4{fill:#d2d2ff;}.cls-5{fill:#fff3f1;}.cls-6{fill:#d6d1ff;}.cls-7{clip-path:url(#clip-path);}.cls-8{fill:#ff9acb;}.cls-9{clip-path:url(#clip-path-2);}.cls-10{fill:#ffb0a6;}.cls-11{fill:#7c87d9;}.cls-12{fill:#eb7a75;}.cls-13{fill:#cf576e;}.cls-14{fill:#f9938f;}.cls-15{clip-path:url(#clip-path-3);}.cls-16{fill:#e35f6d;}</style><clipPath id="clip-path"><ellipse class="cls-1" cx="389.98" cy="79.81" rx="33.3" ry="28.35"/></clipPath><clipPath id="clip-path-2"><ellipse class="cls-1" cx="70.28" cy="56.09" rx="27.88" ry="23.73"/></clipPath><clipPath id="clip-path-3"><rect class="cls-1" x="340.7" y="324.9" width="129.2" height="75.1"/></clipPath></defs><title>planet</title><g id="Слой_2" data-name="Слой 2"><g id="Слой_1-2" data-name="Слой 1"><rect class="cls-2" width="469.89" height="400"/><ellipse class="cls-3" cx="159.76" cy="40.78" rx="9.4" ry="8"/><ellipse class="cls-3" cx="431.56" cy="143.37" rx="4.7" ry="4"/><ellipse class="cls-4" cx="92.49" cy="131.37" rx="9.4" ry="8"/><ellipse class="cls-5" cx="389.98" cy="79.81" rx="33.3" ry="28.35"/><ellipse class="cls-5" cx="389.98" cy="79.81" rx="33.3" ry="28.35"/><ellipse class="cls-6" cx="406.83" cy="92.2" rx="7.1" ry="3.72" transform="translate(10.46 222.21) rotate(-30.93)"/><g class="cls-7"><path class="cls-6" d="M410.47,56.48c-6.39-.65-9.61,8-5.54,12.16s7,7.29,6.85,9.78c-.38,5.08,11.11,6.29,11.46-3S418.72,57.31,410.47,56.48Z"/><ellipse class="cls-6" cx="377.14" cy="62.73" rx="19.22" ry="16.37"/><ellipse class="cls-6" cx="376.78" cy="101.21" rx="13.24" ry="26.23" transform="translate(175.03 435.13) rotate(-73.9)"/></g><ellipse class="cls-8" cx="362.62" cy="99.67" rx="23.55" ry="20.05"/><ellipse class="cls-5" cx="70.28" cy="56.09" rx="27.88" ry="23.73"/><ellipse class="cls-5" cx="70.28" cy="56.09" rx="27.88" ry="23.73"/><path class="cls-6" d="M78,41c-5.23,1.14-4.66,8.73,0,10.92s8.08,3.88,8.82,5.87c1.5,4.06,10.9,2,7.85-5.33S84.74,39.54,78,41Z"/><ellipse class="cls-6" cx="68.67" cy="61.58" rx="3.48" ry="2.96"/><g class="cls-9"><ellipse class="cls-6" cx="51.49" cy="47.04" rx="12.65" ry="10.77"/><ellipse class="cls-6" cx="64.72" cy="81.19" rx="22.32" ry="10.91"/></g><ellipse class="cls-4" cx="25.84" cy="83.82" rx="4.7" ry="4"/><ellipse class="cls-4" cx="334.25" cy="21.59" rx="9.4" ry="8"/><ellipse class="cls-3" cx="284.29" cy="84" rx="4.7" ry="4"/><path class="cls-10" d="M0,281A862.25,862.25,0,0,1,246.07,245.5a852.84,852.84,0,0,1,223.82,30.11V400H0Z"/><path class="cls-11" d="M85.48,376.94a95,95,0,0,0,9.91-29.58,105,105,0,0,0-12.6,11.24,83.86,83.86,0,0,0-3.31-15.27,88.16,88.16,0,0,0-6.66,14.55,97.28,97.28,0,0,0-10-13.09,82.07,82.07,0,0,0,.45,15.68A116.27,116.27,0,0,0,48,351.64a88.91,88.91,0,0,0,7.43,14.19,130.07,130.07,0,0,0-17.86-3.19,115.65,115.65,0,0,0,18.62,14.3Z"/><path class="cls-12" d="M73.15,370.74a31.37,31.37,0,0,0-11.23,12.59H128a29.89,29.89,0,0,0-4.82-7.12C111.13,362.94,88.74,360.49,73.15,370.74Z"/><path class="cls-13" d="M63.71,370.56a30.23,30.23,0,0,0-25,12.77h50A30.21,30.21,0,0,0,63.71,370.56Z"/><path class="cls-14" d="M171.17,360.13c4.24-7.05,12.84-11.44,22.06-11.27,8.84.18,16.91,4.52,21,11.27Z"/><path class="cls-14" d="M15.46,337.08c3-4.94,9-8,15.47-7.89,6.2.12,11.85,3.16,14.69,7.89Z"/><path class="cls-14" d="M296.27,349.79c4.86-8.09,14.71-13.12,25.28-12.92,10.13.2,19.38,5.17,24,12.92Z"/><g class="cls-15"><path class="cls-11" d="M425.54,353.55c-1.63-.21-12.19-26.84-12.19-26.84l-3,13.42-13.79-7.41L403.19,346l-14.43-1.26,10.13,13.07Z"/><polygon class="cls-16" points="379 385.78 383.72 361.22 396.6 360.36 400.77 386.92 379 385.78"/><polygon class="cls-13" points="396.6 360.36 414.06 351.83 425.55 374.77 400.77 386.92 396.6 360.36"/><polygon class="cls-12" points="383.72 361.22 396.6 360.36 414.06 351.83 392.47 352.4 383.72 361.22"/><polygon class="cls-13" points="479.33 361.22 458.36 344.78 440.32 350.59 450.81 374.54 479.33 361.22"/><polygon class="cls-16" points="440.32 350.59 410.39 348.51 408.3 371.53 450.81 374.54 440.32 350.59"/><polygon class="cls-12" points="458.36 344.78 440.32 350.59 410.39 348.51 439.96 337.61 458.36 344.78"/><path class="cls-10" d="M363.31,386.92s21.16-13.23,45-15.39a131.56,131.56,0,0,1,42.51,3l28.52-13.32,6,21.82-80,14Z"/><path class="cls-16" d="M344,399.87l30.59-11s97-7.82,97.73-6.78,0,17.82,0,17.82Z"/><path class="cls-12" d="M419.25,399.87l-44.69-11s97-7.82,97.73-6.78,0,17.82,0,17.82Z"/></g></g></g></svg>