<svg xmlns="http://www.w3.org/2000/svg" xmlns:xlink="http://www.w3.org/1999/xlink" viewBox="0 0 1210.47 910"><defs><style>.cls-1,.cls-34{fill:none;}.cls-2{fill:#918deb;}.cls-3,.cls-9{fill:#d6d1ff;}.cls-4{fill:#5a5cdb;}.cls-5{fill:#aea4ff;}.cls-6{fill:#fd9ec5;}.cls-7{fill:#fff3f1;}.cls-8{clip-path:url(#clip-path);}.cls-9{opacity:0.5;}.cls-10{fill:#417ceb;}.cls-11{fill:#72a3ff;}.cls-12{fill:#ffcd7d;}.cls-13{fill:#f58db9;}.cls-14{fill:#ffe09e;}.cls-15{fill:#ffb261;}.cls-16{fill:#f4a156;}.cls-17{fill:#6d77bf;}.cls-18{fill:#db4e95;}.cls-19{fill:#b73b8c;}.cls-20{fill:#fc7abc;}.cls-21{fill:#f7a55c;}.cls-22{fill:#ffbb74;}.cls-23{fill:#ff80bd;}.cls-24{fill:#a6536d;}.cls-25{fill:#ba636e;}.cls-26{fill:#9cfdff;}.cls-27,.cls-28{fill:#54f0ff;}.cls-28{opacity:0.2;}.cls-29{fill:#fff;}.cls-30{fill:#fafcff;}.cls-31{fill:#a9cefc;}.cls-32{fill:#d2e7ff;}.cls-33{fill:#84b8fa;}.cls-34{stroke:#3c1587;stroke-linejoin:round;stroke-width:4px;}.cls-35{fill:#ff93c7;}</style><clipPath id="clip-path"><circle class="cls-1" cx="403.95" cy="294.99" r="27.14"/></clipPath></defs><title>Planet 3</title><g id="Слой_2" data-name="Слой 2"><g id="Layer_1" data-name="Layer 1"><g id="_7" data-name="7"><g id="sky"><rect class="cls-2" width="1210" height="910"/><path class="cls-3" d="M1080.5,153.54c3.58-9.32,10.84-15.12,18.62-14.88,7.46.22,14.27,6,17.69,14.88Z"/><path class="cls-3" d="M233.7,45C211.49,44.3,190.38,56.07,175,76.52c-9.63-9.62-21.38-15.27-33.75-15.64-22.43-.69-43.34,16-53.64,42.87h215.9C290,68.51,263.16,45.87,233.7,45Z"/><path class="cls-3" d="M46,208.29c3.58-9.32,10.83-15.12,18.62-14.89,7.46.23,14.27,6,17.69,14.89Z"/><circle class="cls-4" cx="625.47" cy="161" r="8.17" transform="translate(195.98 643.35) rotate(-62.75)"/><circle class="cls-4" cx="536.38" cy="365.97" r="8.17" transform="translate(-5.51 723.72) rotate(-67.74)"/><path class="cls-4" d="M1085.83,115.59a8.17,8.17,0,1,0,4.46,10.65A8.16,8.16,0,0,0,1085.83,115.59Z"/><circle class="cls-4" cx="132.32" cy="167.06" r="8.17" transform="translate(-74.33 114.97) rotate(-37.47)"/><circle class="cls-4" cx="398.64" cy="175.22" r="8.17" transform="translate(-36.74 167.36) rotate(-22.69)"/><path class="cls-4" d="M530.75,137.75a3.73,3.73,0,1,0-2-4.87A3.73,3.73,0,0,0,530.75,137.75Z"/><path class="cls-4" d="M1122.24,183.28a3.73,3.73,0,1,0,2,4.88A3.74,3.74,0,0,0,1122.24,183.28Z"/><path class="cls-4" d="M1148.64,49.35a3.73,3.73,0,1,0,2,4.87A3.73,3.73,0,0,0,1148.64,49.35Z"/><path class="cls-4" d="M674.44,263.08a3.73,3.73,0,1,0,2,4.87A3.73,3.73,0,0,0,674.44,263.08Z"/><path class="cls-4" d="M570.39,292.91a3.73,3.73,0,1,0,2,4.87A3.73,3.73,0,0,0,570.39,292.91Z"/><path class="cls-4" d="M156.57,275.88a3.73,3.73,0,1,0,2,4.87A3.74,3.74,0,0,0,156.57,275.88Z"/><path class="cls-4" d="M1017.76,128.56a3.74,3.74,0,1,0,2,4.87A3.73,3.73,0,0,0,1017.76,128.56Z"/><path class="cls-4" d="M252.54,204.83a3.74,3.74,0,1,0,2,4.87A3.75,3.75,0,0,0,252.54,204.83Z"/><path class="cls-4" d="M559.73,419.48a3.73,3.73,0,1,0,2,4.87A3.74,3.74,0,0,0,559.73,419.48Z"/><circle class="cls-4" cx="700.29" cy="130.11" r="3.73" transform="translate(-9.16 193.44) rotate(-15.63)"/><path class="cls-4" d="M485.13,279.62a3.73,3.73,0,1,0,2,4.87A3.73,3.73,0,0,0,485.13,279.62Z"/><path class="cls-4" d="M567.36,69.35a3.73,3.73,0,1,0-4.87,2A3.73,3.73,0,0,0,567.36,69.35Z"/><path class="cls-5" d="M578.56,335.38a7.92,7.92,0,1,0,4.32,10.33A7.92,7.92,0,0,0,578.56,335.38Z"/><path class="cls-5" d="M764.21,118a7.91,7.91,0,1,0,4.31,10.32A7.91,7.91,0,0,0,764.21,118Z"/><circle class="cls-5" cx="520.98" cy="182.41" r="7.91" transform="translate(15.02 403.07) rotate(-42.86)"/><path class="cls-5" d="M1051,28.76a7.92,7.92,0,1,0,4.32,10.33A7.92,7.92,0,0,0,1051,28.76Z"/><path class="cls-5" d="M46.19,88.51A7.91,7.91,0,1,0,50.5,98.84,7.93,7.93,0,0,0,46.19,88.51Z"/><circle class="cls-5" cx="296.79" cy="294.99" r="7.91" transform="matrix(0.67, -0.74, 0.74, 0.67, -121.02, 318.13)"/><circle class="cls-6" cx="429.89" cy="308.62" r="19.19"/><circle class="cls-7" cx="403.95" cy="294.99" r="27.14"/><circle class="cls-7" cx="403.95" cy="294.99" r="27.14"/><ellipse class="cls-3" cx="409.86" cy="277.83" rx="3.38" ry="6.1" transform="translate(-33.25 498.8) rotate(-60.64)"/><g class="cls-8"><path class="cls-3" d="M377,287.78c1.37,5.07,10.05,4.42,12.49-.14s4.35-7.92,6.62-8.66c4.63-1.52,2.23-10.64-6.17-7.58S375.24,281.24,377,287.78Z"/><circle class="cls-3" cx="392.66" cy="310.78" r="15.67" transform="translate(-3.43 4.38) rotate(-0.64)"/><ellipse class="cls-3" cx="426.97" cy="297.36" rx="12.47" ry="21.73" transform="translate(-3.28 4.76) rotate(-0.64)"/></g><path class="cls-9" d="M234.29,253.53c-201.79-88,49.41-179.1,323.12-94.28-207.28-59.84-496.28-3.92-315.48,73.27A210.28,210.28,0,0,1,234.29,253.53Z"/><path class="cls-10" d="M223.09,227.22l10-2.92A14.07,14.07,0,0,1,249.84,232l.37.82Z"/><path class="cls-10" d="M217.83,251.71l8.12,6.53a14.06,14.06,0,0,0,18.41-.67L245,257Z"/><path class="cls-10" d="M257.29,253c-11.2-4.45-18.07-13.59-15.36-20.43a8.49,8.49,0,0,1,1.45-2.37c-1-.14-2-.24-3-.29-15.66-.79-19.79,21.87-5.22,26.19,18.62,5.52,38.26,2.66,42.27-2.36C272.41,256,264.84,256,257.29,253Z"/><path class="cls-11" d="M243.38,230.15a8.49,8.49,0,0,0-1.45,2.37c-2.71,6.84,4.16,16,15.36,20.43,7.55,3,15.12,3.09,20.09.74a3.21,3.21,0,0,0,.7-1.39C279.17,246.87,260.8,232.5,243.38,230.15Z"/></g><rect class="cls-12" y="455" width="1210" height="455"/><polygon class="cls-6" points="605 455 492.48 425.4 377.23 365.23 368.83 385.99 335.36 382.67 337.4 425.4 273.65 359.19 192.4 347.3 192.4 392.25 166.15 347.3 110.37 325.61 45.99 285 0 313.93 0 501 106.96 477.92 213.35 470.88 228.5 463.97 349.9 459.59 377.23 455 605 455"/><polygon class="cls-13" points="192.4 347.3 175.1 362.63 192.4 392.25 192.4 347.3"/><polygon class="cls-13" points="335.36 382.67 309.6 396.52 337.4 425.4 335.36 382.67"/><polygon class="cls-13" points="377.23 365.23 368.83 385.99 349.9 384.11 377.23 365.23"/><polygon class="cls-13" points="45.99 285 0 324.61 0 294.91 45.99 285"/><polygon class="cls-14" points="605 455 452.13 453.94 447.54 452.97 442.02 453.98 390.32 452.97 375.7 451.86 374.32 453.43 371.43 453.43 367.16 452.55 362.88 450.35 365.23 453.66 347.27 458.12 326.55 456.42 308.92 458.9 284.06 456.89 276.73 459.05 234.65 457.08 217.49 444.73 222.35 455 205.89 463.42 183.75 464.7 169.17 459.55 157.57 459.55 152.86 466.64 114.41 464.06 80.26 453.11 68.02 465.35 38.38 476.95 0 469.21 0 525 31.92 505.54 68.93 499.37 102.23 482.84 160.45 480.38 158.72 477.66 165.32 474.06 213.35 470.88 228.5 463.97 283.42 464.9 288.09 461.81 313.42 463.15 330.94 460.71 352.83 461.54 368.15 457.51 379.54 458.76 377.87 457.54 380.02 456.45 442.71 456.28 450.15 457.31 451.81 456.55 606.64 456 605 455"/><rect class="cls-15" y="605" width="1210" height="305"/><polygon class="cls-16" points="1054.63 773.36 1047.95 745.82 1069 745.82 1013.29 729.31 921.72 715.55 908.85 709.93 978.47 701.24 1069 689.92 964.78 697.31 867.14 709.93 899.45 714.19 916.3 721.58 1004.36 736.11 1029 745.82 1029 769.46 978.47 779.95 848.67 789.66 717.96 799.89 698.08 793.56 680.44 808.6 494.56 809.22 372.11 748.95 0 717.58 0 910 1005 910 776.1 874.38 719.05 836 767.62 816.37 840.73 808.6 902.51 808.6 956.45 802.19 1089.37 789.66 1054.63 773.36"/><path class="cls-14" d="M0,910H805S326.54,817.54,0,817.54Z"/><path class="cls-17" d="M0,910H691.47S280.49,830.58,0,830.58Z"/><polygon class="cls-18" points="569.79 731.37 585.8 691.52 604.6 694.2 600.57 740.27 569.79 731.37"/><polygon class="cls-19" points="604.6 694.2 632.85 685.43 640.66 727.74 600.57 740.27 604.6 694.2"/><polygon class="cls-20" points="585.8 691.52 604.6 694.2 632.85 685.43 601.67 679.47 585.8 691.52"/><polygon class="cls-19" points="699.51 743.74 680.23 715.96 657.59 719.19 662.44 754.47 699.51 743.74"/><polygon class="cls-18" points="657.59 719.19 623.57 708.62 614.15 739.38 662.44 754.47 657.59 719.19"/><polygon class="cls-20" points="680.23 715.96 657.59 719.19 623.57 708.62 661.11 701.44 680.23 715.96"/><ellipse class="cls-16" cx="765.01" cy="724.02" rx="56.45" ry="10.14"/><path class="cls-21" d="M790.51,697.85,798.26,719c0,19.43-94.19,19.43-94.19,0l6.29-21.13Z"/><ellipse class="cls-22" cx="750.43" cy="697.85" rx="40.08" ry="14.33"/><ellipse class="cls-21" cx="751.08" cy="696.94" rx="30.03" ry="10.48"/><path class="cls-23" d="M778.2,701.45c-4.83,3.53-15.16,6-27.12,6s-22.51-2.5-27.27-6.09C741.62,695.91,762.31,694.21,778.2,701.45Z"/><path class="cls-17" d="M1138.62,862.77c20.81-46.67,25-87.64,25-87.64s-14.28,12.09-31.75,33.31c-3-27.32-8.37-45.25-8.37-45.25s-8.66,16.71-16.78,43.12c-13.37-24.2-25.28-38.79-25.28-38.79s-1.57,18.86,1.15,46.46c-21.73-17.25-38.42-26.16-38.42-26.16s5.76,17.81,18.75,42c-26.43-7.59-45-9.47-45-9.47s17.37,20.47,46.95,42.38Z"/><path class="cls-24" d="M1062.06,845.68c-33.63,0-63.18,19.17-80.11,48.09h160.2C1125.23,864.85,1095.69,845.68,1062.06,845.68Z"/><path class="cls-25" d="M1210,849.24A114.29,114.29,0,0,0,1056.32,910H1210Z"/><polygon class="cls-19" points="825.58 862.21 839.64 849.22 833.61 838.52 822.67 844.84 825.58 862.21"/><polygon class="cls-18" points="801.66 850.55 805.57 840.27 822.67 844.84 825.58 862.21 801.66 850.55"/><polygon class="cls-20" points="822.67 844.84 805.57 840.27 822.67 834.8 833.61 838.52 822.67 844.84"/><path class="cls-25" d="M1062.21,719.7a14.54,14.54,0,0,1,26,0Z"/><path class="cls-25" d="M565.37,788a17.34,17.34,0,0,1,31,0Z"/><polygon class="cls-16" points="1210 687.42 1182.88 692.21 1129.96 690.74 1122.63 688.56 1083.62 691.22 1069 689.92 1033 692.47 1041 686.77 994.57 682.07 1013.96 677 1017 674.3 994.16 672.87 988.07 675.34 941.46 671.37 919.47 661.82 929.78 658.57 908.85 656.63 903.53 650 936.82 642.1 1080.29 618.5 1210 618.5 1210 687.42"/><polygon class="cls-26" points="913.41 41.54 888.62 41.54 895 53 907 53 913.41 41.54"/><circle class="cls-27" cx="901" cy="35" r="14"/><circle class="cls-28" cx="901" cy="35" r="32"/><path class="cls-28" d="M847.43,0A64,64,0,1,0,954.57,0Z"/><circle class="cls-29" cx="901" cy="35" r="8.12"/><polygon class="cls-30" points="905.34 56 907 53 895 53 896.66 56 893 88 901 88 909 88 905.34 56"/><polygon class="cls-31" points="906.83 69 906.71 68 901 68 895.29 68 895.17 69 901 69 906.83 69"/><polygon class="cls-31" points="905.91 61 905.8 60 901 60 896.2 60 896.09 61 901 61 905.91 61"/><polygon class="cls-31" points="905.46 57 905.34 56 901 56 896.66 56 896.54 57 901 57 905.46 57"/><polygon class="cls-31" points="906.37 65 906.26 64 901 64 895.74 64 895.63 65 901 65 906.37 65"/><polygon class="cls-31" points="908.2 81 908.09 80 901 80 893.91 80 893.8 81 901 81 908.2 81"/><polygon class="cls-31" points="908.54 84 901 84 893.46 84 893.34 85 901 85 908.66 85 908.54 84"/><polygon class="cls-31" points="907.29 73 907.17 72 901 72 894.83 72 894.71 73 901 73 907.29 73"/><polygon class="cls-31" points="907.74 77 907.63 76 901 76 894.37 76 894.26 77 901 77 907.74 77"/><polygon class="cls-32" points="904 53 902.17 56 904 88 909 88 905.34 56 907 53 904 53"/><polygon class="cls-33" points="903.6 81 908.2 81 908.09 80 903.54 80 903.6 81"/><polygon class="cls-33" points="903.83 85 908.66 85 908.54 84 903.77 84 903.83 85"/><polygon class="cls-33" points="903.14 73 907.29 73 907.17 72 903.09 72 903.14 73 903.14 73"/><polygon class="cls-33" points="907.63 76 903.31 76 903.31 76 903.37 77 907.74 77 907.63 76"/><polygon class="cls-33" points="902.68 65 906.37 65 906.26 64 902.63 64 902.68 65"/><polygon class="cls-33" points="902.91 69 906.83 69 906.71 68 902.86 68 902.91 69"/><polygon class="cls-33" points="902.23 57 905.46 57 905.34 56 902.17 56 902.23 57 902.23 57"/><polygon class="cls-33" points="905.8 60 902.4 60 902.4 60 902.46 61 905.91 61 905.8 60"/><polygon class="cls-18" points="893 88 904 88 908.2 81 937.03 98.2 941.97 119.72 954.57 127.25 971.65 164.91 988.96 171.37 996.99 154.35 1008.57 151.48 1020.17 154.35 1029.6 180.43 1058.21 193.96 1080.43 248.84 1107.33 258.52 1130.03 294.19 1138.53 280.05 1163.28 285 1184.8 318.78 1210 340.3 1210 630.86 1168.97 638.29 1080.29 618.5 972.97 647 745.17 616.16 725.63 605 624.7 614.79 561.04 605 290.74 605 389.6 526.62 415.29 514.73 426.28 516.13 461.81 494.32 476.35 493.68 552.29 463.24 586.7 430.13 597.61 430.07 619.77 398.13 658.7 380.13 692.94 324.4 703.65 325.06 741.53 289.59 754.21 237.47 759.41 232.16 764.71 194.27 787.11 188.72 795.46 159.39 814.41 155.25 827.2 141.51 828.8 124.65 858.85 117.38 861.55 106.79 875.81 90.87 893.46 84 893 88"/><polygon class="cls-20" points="586.7 430.13 586.7 438.31 624.7 438.31 597.61 430.07 586.7 430.13"/><polygon class="cls-20" points="476.35 493.68 489.55 507.38 461.81 494.32 476.35 493.68"/><polygon class="cls-19" points="444.68 533.3 455.83 552.6 427.35 600.82 455.83 600.1 463.95 552.6 444.68 533.3"/><polygon class="cls-20" points="941.97 384.08 964.78 400.52 1047.95 425.4 1078.86 411.39 978.15 386.33 960.12 375.61 941.97 384.08"/><polygon class="cls-20" points="1168.97 471.43 1099.27 470.1 1084.71 459.49 1047.95 470.71 1070.51 478.78 1142.6 485.18 1168.97 471.43"/><polygon class="cls-20" points="971.94 349.28 1006.32 362.09 1054.63 365.23 996.99 343 971.94 349.28"/><polygon class="cls-19" points="1047.95 425.4 1035.81 484.87 1035.81 519.79 1047.95 470.71 1084.71 459.49 1078.86 411.39 1047.95 425.4"/><polygon class="cls-19" points="637.72 472.33 645.42 512.42 634.75 521.06 606.64 522.76 563.07 566 561.04 605 516.78 614.75 528.53 557.05 572.55 516.13 554.21 505.26 606.64 512.42 619.77 507.38 637.72 472.33"/><polygon class="cls-20" points="758.87 400.52 795.46 418.07 805 375.61 795.46 373.88 758.87 400.52"/><polygon class="cls-20" points="812.34 447.44 771.06 465.98 822.91 478.78 828.8 455 812.34 447.44"/><polygon class="cls-19" points="764.71 491.54 758.87 548.27 725.63 605 624.7 614.79 669.61 557.05 725.63 536.39 743.83 505.26 764.71 491.54"/><polygon class="cls-20" points="881.13 326.76 887 332.56 922.32 334.5 906.37 342.7 871.69 342.7 867.14 331.97 881.13 326.76"/><polygon class="cls-20" points="908.85 455 926.62 447.44 936.82 459.49 964.78 470.1 951.41 475.2 908.85 455"/><polygon class="cls-20" points="658.7 380.13 667.79 393 725.63 393 697.08 416.69 637.72 411.39 619.77 398.13 658.7 380.13"/><polygon class="cls-20" points="795.46 159.39 814.41 155.25 810.52 159.43 811.12 163.69 824.22 167.03 839.24 165.63 845.28 167.67 828.8 173.9 805.64 170.33 797.2 164.92 795.46 159.39"/><polygon class="cls-19" points="824.22 167.03 825.24 162.57 833.51 152.02 839.24 165.63 824.22 167.03"/><polygon class="cls-19" points="908.2 81 904 88 909.78 84.5 926.62 97.48 920.41 110.36 925.73 131.55 944.27 132.17 932.29 150.58 925.2 153.41 921.38 154.35 915.87 157.24 920.63 180.44 936.51 188.83 945.87 180.89 951.41 169.51 956.65 166.22 978.15 172.69 972.48 179.93 969.7 190.14 986.38 170.4 971.65 164.91 954.57 127.25 941.97 119.72 937.03 98.2 908.2 81"/><polygon class="cls-19" points="896.54 142.08 885.59 98.67 880.01 108.59 880.01 161.48 889.73 145.2 896.54 142.08"/><polygon class="cls-20" points="956.65 166.22 951.41 169.51 956.65 176.59 972.48 179.93 978.15 172.69 956.65 166.22"/><polygon class="cls-20" points="880.01 232.16 893 222.92 871.33 220.64 871.28 215.82 861.75 213.06 855.78 217.58 859.3 227.28 880.01 232.16"/><polygon class="cls-20" points="915.87 157.24 921.38 154.35 932.29 150.58 903.54 147.62 896.54 142.08 889.73 145.2 896.54 154.35 915.87 157.24"/><polygon class="cls-19" points="1013.96 177.16 1028.48 194.09 1035.81 254.65 1038.9 248.67 1048.54 239.89 1045.84 252.15 1051.05 272.4 1077.09 292.07 1083.65 329.88 1147.31 383.6 1168.97 471.43 1142.6 485.18 1133.94 525 1125.77 529.9 1141.77 546.23 1134.83 580.92 1168.97 638.29 1210 630.86 1210 340.3 1184.8 318.78 1163.28 285 1138.53 280.05 1130.03 294.19 1107.33 258.52 1080.43 248.84 1058.21 193.96 1029.6 180.43 1013.96 177.16"/><polygon class="cls-19" points="920.63 180.44 936.51 188.83 931.19 215.53 956.45 227.81 983.75 276.27 1008.12 275.33 1023.35 254.3 1034.78 246.11 1035.81 254.65 996.99 343 971.94 349.28 960.12 375.61 941.97 384.08 931.19 430.99 848.67 413.07 906.37 342.7 922.32 334.5 932.29 299.41 956.45 284.93 938.6 232.16 913.41 219.33 920.63 180.44"/><polygon class="cls-20" points="828.8 124.65 839.24 133.15 851.88 129.85 859.49 138.65 864.02 135.57 868.55 123.02 858.85 117.38 828.8 124.65"/><polygon class="cls-20" points="787.11 188.72 791.39 192.47 831.09 202.4 814.13 210.75 771.88 201.18 764.71 194.27 787.11 188.72"/><polygon class="cls-20" points="759.41 232.16 764.71 242.35 817.4 254.51 802.73 265.12 755.99 251.9 754.21 237.47 759.41 232.16"/><polygon class="cls-20" points="887 275.06 897.68 294.69 932.29 299.41 956.45 284.93 913.33 280.05 911.95 264.31 887 275.06"/><polygon class="cls-19" points="805 300.85 789.47 320.18 831.73 305 850.68 290.54 858.73 270.26 848.67 246.78 855.78 217.58 861.75 213.06 843.05 198.24 845.28 167.67 828.8 173.9 831.09 202.4 814.13 210.75 817.4 254.51 802.73 265.12 805 300.85"/><polygon class="cls-19" points="911.95 264.31 893.8 248.64 893 222.92 880.01 232.16 874.67 261.7 887 275.06 911.95 264.31"/><polygon class="cls-19" points="1099.27 521.79 1066.89 524.91 1009.48 536.21 983.75 518.86 964.78 470.1 951.41 475.2 951.41 514.16 938.6 536.21 911.95 521.79 888.85 519.28 904.5 501 908.85 455 926.62 447.44 931.19 430.99 848.67 413.07 834.02 408.5 867.14 331.97 881.13 326.76 855.78 329.37 850.03 354.12 825.87 383.32 805 375.61 795.46 418.07 795.46 455.02 812.34 447.44 828.8 455 822.91 478.78 828.8 552.6 842.22 535.06 874.84 536.21 905.59 581.01 983.75 595.24 972.97 647 1080.29 618.5 1078.55 577.71 1099.27 541.94 1099.27 521.79"/><polygon class="cls-19" points="785.8 380.91 767.62 365.97 740.81 337.57 722.26 326 711.98 325.48 727.68 369.91 725.63 393 697.08 416.69 702.58 440.97 690.35 505.26 743.07 459.49 758.87 400.52 795.46 373.88 785.8 380.91"/><polygon class="cls-18" points="602.61 586.75 587.24 589.15 580.86 604.5 596.9 621.61 607.26 593.02 602.61 586.75"/><polygon class="cls-19" points="627.83 609.18 612.56 578.27 600.86 594.09 596.9 621.61 609.46 626.7 627.83 609.18"/><polygon class="cls-18" points="609.46 626.7 636.59 576.08 646.2 588.64 634.18 638.18 609.46 626.7"/><polygon class="cls-20" points="646.2 588.64 695.33 580.93 692.58 573.39 636.59 576.08 646.2 588.64"/><polygon class="cls-19" points="685.72 656.12 700.48 638 698.08 619.7 692.24 625.44 685.72 656.12"/><polygon class="cls-19" points="695.33 580.93 690.94 631.92 634.18 638.18 646.2 588.64 695.33 580.93"/><polygon class="cls-18" points="634.18 651.47 634.18 643.57 627.83 647.52 634.18 651.47"/><polygon class="cls-19" points="634.18 651.47 652.72 652.84 644.83 641.77 634.18 643.57 634.18 651.47"/><polygon class="cls-18" points="648.95 638.18 654.96 622.39 692.24 625.44 685.72 656.12 648.95 638.18"/><polygon class="cls-20" points="692.24 625.44 654.96 622.39 690.87 615.39 698.08 619.7 692.24 625.44"/><polygon class="cls-20" points="587.24 589.15 594.78 580.93 612.56 578.27 613.42 587.64 600.86 594.09 587.24 589.15"/><polygon class="cls-19" points="840.73 632.72 826.9 612.38 820.65 620.56 824.65 640.19 840.73 632.72"/><polygon class="cls-20" points="820.65 620.56 788.69 615.54 795.13 610.86 826.9 612.38 820.65 620.56"/><polygon class="cls-18" points="788.69 615.54 787.73 636.12 824.65 640.19 820.65 620.56 788.69 615.54"/><polygon class="cls-18" points="773.2 655.28 759.14 642.29 765.16 631.59 776.1 637.91 773.2 655.28"/><polygon class="cls-19" points="797.11 643.61 793.21 633.34 776.1 637.91 773.2 655.28 797.11 643.61"/><polygon class="cls-20" points="776.1 637.91 793.21 633.34 776.1 627.87 765.16 631.59 776.1 637.91"/><polyline class="cls-34" points="1013 605 873.34 605 711.6 537 543.34 535.06 498.53 497.9 585.8 454.63 652.72 454.63 694.71 407.33 795.46 384.61 777.64 333.72 892.88 312.24 909.12 290.75 783.5 260.48 781.55 234.12 881.15 194.08 887 172.6 837.21 149.16 841.12 114.98 876.09 97.16"/><polyline class="cls-34" points="923.79 105.53 953.05 119.44 932.29 150.58 1001.34 161.68 1040.63 175.23 986.66 229.1 1005.31 262.24 1105.51 285 1135.06 285 1179.6 299.87 1176.92 318.04 1099.9 365.12 1093.68 410 1210 438.31"/><polygon class="cls-20" points="893.46 84 893 88 904 88 909.78 84.5 926.62 97.48 920.41 110.36 885.59 98.67 880.01 108.59 861.55 106.79 875.81 90.87 893.46 84"/><polygon class="cls-19" points="937.03 98.2 926.62 97.48 920.41 110.36 941.97 119.72 937.03 98.2"/><polygon class="cls-18" points="996.99 154.35 1009.48 158.49 1006.32 184.61 983.75 174.38 996.99 154.35"/><polygon class="cls-20" points="996.99 154.35 1009.48 158.49 1020.17 154.35 1008.57 151.48 996.99 154.35"/><polygon class="cls-19" points="1020.17 154.35 1009.48 158.49 1006.32 184.61 1013.96 177.16 1029.6 180.43 1020.17 154.35"/><polygon class="cls-18" points="1138.53 280.05 1153.88 289.82 1157.68 313.83 1148.11 329.37 1124.24 313.83 1111.98 312.51 1124.73 303 1138.53 280.05"/><polygon class="cls-20" points="1163.28 285 1153.88 289.82 1138.53 280.05 1163.28 285"/><polygon class="cls-19" points="1163.28 285 1175.84 304.71 1157.68 313.83 1153.88 289.82 1163.28 285"/><path class="cls-3" d="M1131.19,237.91a24.92,24.92,0,0,0-14.63,4.38c-6.37-6.22-14.09-9.87-22.22-10.12-15-.45-29,10.72-35.85,28.66h99.94C1153.16,247.09,1142.68,238.26,1131.19,237.91Z"/><path class="cls-3" d="M932.6,286.18c6.34-16.51,19.2-26.8,33-26.38,13.23.4,25.29,10.57,31.36,26.38Z"/><path class="cls-3" d="M772.08,168.39c-12.26-.37-23.92,6.13-32.39,17.43-5.32-5.32-11.8-8.44-18.63-8.65-12.39-.38-23.93,8.85-29.62,23.67H810.65C803.19,181.39,788.34,168.89,772.08,168.39Z"/><polygon class="cls-19" points="1125.69 680.01 1134.41 669.72 1150.58 669.67 1160.57 661.41 1189.06 655.47 1210 644.86 1210 680.01 1138.32 681.66 1125.69 680.01"/><polygon class="cls-18" points="1160.57 661.41 1150.58 669.67 1155.9 671.53 1163.81 666.46 1164.74 663.26 1171.4 661.02 1168.94 659.66 1160.57 661.41"/><polygon class="cls-23" points="1187.42 680.01 1172.65 641.5 1188.89 635.2 1206.09 680.01 1187.42 680.01"/><path class="cls-35" d="M1172.62,641.5l5-11.27,11.28,5-5,11.28Z"/><polygon class="cls-20" points="1196.87 680.01 1183.92 646.47 1188.89 635.2 1206.21 680.01 1196.87 680.01"/><polygon class="cls-23" points="1176.6 680.01 1167.75 656.52 1177.07 652.9 1187.28 680.01 1176.6 680.01"/><path class="cls-35" d="M1167.73,656.53l2.85-6.47,6.47,2.85-2.85,6.47Z"/><polygon class="cls-20" points="1182.02 680.01 1174.22 659.37 1177.07 652.9 1187.35 680.01 1182.02 680.01"/><polygon class="cls-23" points="1149.78 680.01 1142.1 659.62 1150.19 656.48 1159.05 680.01 1149.78 680.01"/><path class="cls-35" d="M1142.08,659.63l2.47-5.62,5.62,2.47-2.48,5.62Z"/><polygon class="cls-20" points="1154.48 680.01 1147.72 662.1 1150.19 656.48 1159.11 680.01 1154.48 680.01"/><polygon class="cls-18" points="1135.07 683.17 1156.73 673.12 1178.29 677.19 1197.03 667.89 1210 669.39 1210 691.39 1188.87 693.77 1160.05 686.25 1164.67 684.3 1147.72 685.68 1135.07 683.17"/><polygon class="cls-19" points="1147.72 685.68 1164.67 684.3 1178.29 677.19 1162.19 672.4 1147.72 685.68"/><polygon class="cls-19" points="1188.87 693.77 1197.09 678.93 1196.31 674.87 1200.06 668.24 1210 669.39 1210 691.39 1188.87 693.77"/><polygon class="cls-18" points="1125.69 680.01 1135.07 681.23 1140.68 676.12 1140.68 671.15 1134.41 669.72 1125.69 680.01"/></g></g></g></svg>