<svg version="1.1" xmlns="http://www.w3.org/2000/svg" xmlns:xlink="http://www.w3.org/1999/xlink" width="493.51113" height="421.01952" viewBox="0,0,493.51113,421.01952"><defs><clipPath id="clip-1"><path d="M360.91233,62.01172c0,-16.3573 15.57549,-29.61752 34.78883,-29.61752c19.21334,0 34.78883,13.26022 34.78883,29.61752c0,16.3573 -15.57549,29.61752 -34.78883,29.61752c-19.21334,0 -34.78883,-13.26022 -34.78883,-29.61752z" fill="none"/></clipPath><clipPath id="clip-2"><path d="M32.58101,37.2312c0,-13.69167 13.04038,-24.79096 29.1265,-24.79096c16.08612,0 29.1265,11.09929 29.1265,24.79096c0,13.69167 -13.04038,24.79096 -29.1265,24.79096c-16.08612,0 -29.1265,-11.09929 -29.1265,-24.79096z" fill="none"/></clipPath><clipPath id="clip-3"><path d="M344.21787,396.51727v-78.45769h134.97647v78.45769z" fill="none"/></clipPath></defs><g transform="translate(12.75938,24.50225)"><g data-paper-data="{&quot;isPaintingLayer&quot;:true}" fill-rule="nonzero" stroke="none" stroke-width="1" stroke-linecap="butt" stroke-linejoin="miter" stroke-miterlimit="10" stroke-dasharray="" stroke-dashoffset="0" style="mix-blend-mode: normal"><path d="M147.715,20.78c0,-4.41828 4.20852,-8 9.4,-8c5.19148,0 9.4,3.58172 9.4,8c0,4.41828 -4.20852,8 -9.4,8c-5.19148,0 -9.4,-3.58172 -9.4,-8z" fill="#8b87e8"/><path d="M92.025,32.46c3.05,7.33 -6.35,9.39 -7.85,5.33c-0.74,-1.99 -4.16,-3.68 -8.82,-5.87c-4.66,-2.19 -5.23,-9.78 0,-10.92c6.74,-1.46 13.62,4.13 16.67,11.46z" fill="#d6d1ff"/><path d="M62.545,41.58c0,-1.63476 1.55805,-2.96 3.48,-2.96c1.92195,0 3.48,1.32524 3.48,2.96c0,1.63476 -1.55805,2.96 -3.48,2.96c-1.92195,0 -3.48,-1.32524 -3.48,-2.96z" fill="#d6d1ff"/><path d="M322.205,1.59c0,-4.41828 4.20852,-8 9.4,-8c5.19148,0 9.4,3.58172 9.4,8c0,4.41828 -4.20852,8 -9.4,8c-5.19148,0 -9.4,-3.58172 -9.4,-8z" fill="#d2d2ff"/><path d="M-10.14682,393.38157v-417.88382h490.89857v417.88382z" fill="#aba1f7"/><path d="M434.23005,128.41345c0,-2.30791 2.19834,-4.17884 4.91013,-4.17884c2.71179,0 4.91013,1.87093 4.91013,4.17884c0,2.30791 -2.19834,4.17884 -4.91013,4.17884c-2.71179,0 -4.91013,-1.87093 -4.91013,-4.17884z" fill="#8b87e8"/><path d="M75.09024,115.87694c0,-4.61582 4.39668,-8.35768 9.82027,-8.35768c5.42359,0 9.82027,3.74186 9.82027,8.35768c0,4.61582 -4.39668,8.35768 -9.82027,8.35768c-5.42359,0 -9.82027,-3.74186 -9.82027,-8.35768z" fill="#d2d2ff"/><path d="M360.91233,62.01172c0,-16.3573 15.57549,-29.61752 34.78883,-29.61752c19.21334,0 34.78883,13.26022 34.78883,29.61752c0,16.3573 -15.57549,29.61752 -34.78883,29.61752c-19.21334,0 -34.78883,-13.26022 -34.78883,-29.61752z" fill="#fff3f1"/><path d="M360.91233,62.01172c0,-16.3573 15.57549,-29.61752 34.78883,-29.61752c19.21334,0 34.78883,13.26022 34.78883,29.61752c0,16.3573 -15.57549,29.61752 -34.78883,29.61752c-19.21334,0 -34.78883,-13.26022 -34.78883,-29.61752z" fill="#fff3f1"/><path d="M406.93876,78.75984c-1.1032,-1.84113 0.85112,-5.04058 4.36512,-7.14616c3.514,-2.10558 7.25697,-2.31996 8.36018,-0.47882c1.1032,1.84113 -0.85112,5.04058 -4.36512,7.14616c-3.514,2.10558 -7.25697,2.31996 -8.36018,0.47882z" fill="#d6d1ff"/><g clip-path="url(#clip-1)"><path d="M430.4482,57.42544c-0.36565,9.70535 -12.36936,8.44125 -11.97237,3.13413c0.15671,-2.60133 -2.90429,-5.87127 -7.15626,-10.21726c-4.25197,-4.34599 -0.888,-13.38273 5.78769,-12.70367c8.61885,0.86711 13.70659,10.08145 13.34094,19.7868z" fill="#d6d1ff"/><path d="M362.20777,44.16808c0,-9.44511 8.98982,-17.1019 20.07932,-17.1019c11.0895,0 20.07932,7.65678 20.07932,17.1019c0,9.44511 -8.98982,17.1019 -20.07932,17.1019c-11.0895,0 -20.07932,-7.65678 -20.07932,-17.1019z" fill="#d6d1ff"/><path d="M378.05123,97.64191c-14.54054,-4.19691 -24.61063,-13.54907 -22.49217,-20.88863c2.11845,-7.33957 15.62323,-9.88718 30.16377,-5.69027c14.54054,4.19691 24.61063,13.54907 22.49217,20.88863c-2.11845,7.33957 -15.62323,9.88718 -30.16377,5.69027z" fill="#d6d1ff"/></g><path d="M342.515,82.75965c0,-11.56839 11.01509,-20.94643 24.60291,-20.94643c13.58782,0 24.60291,9.37803 24.60291,20.94643c0,11.56839 -11.01509,20.94643 -24.60291,20.94643c-13.58782,0 -24.60291,-9.37803 -24.60291,-20.94643z" fill="#ff9acb"/><path d="M32.58101,37.2312c0,-13.69167 13.04038,-24.79096 29.1265,-24.79096c16.08612,0 29.1265,11.09929 29.1265,24.79096c0,13.69167 -13.04038,24.79096 -29.1265,24.79096c-16.08612,0 -29.1265,-11.09929 -29.1265,-24.79096z" fill="#fff3f1"/><path d="M32.58101,37.2312c0,-13.69167 13.04038,-24.79096 29.1265,-24.79096c16.08612,0 29.1265,11.09929 29.1265,24.79096c0,13.69167 -13.04038,24.79096 -29.1265,24.79096c-16.08612,0 -29.1265,-11.09929 -29.1265,-24.79096z" fill="#fff3f1"/><g clip-path="url(#clip-2)"><path d="M28.86185,27.77658c0,-6.21405 5.91682,-11.25152 13.21558,-11.25152c7.29876,0 13.21558,5.03747 13.21558,11.25152c0,6.21405 -5.91682,11.25152 -13.21558,11.25152c-7.29876,0 -13.21558,-5.03747 -13.21558,-11.25152z" fill="#d6d1ff"/><path d="M32.58101,63.45341c0,-6.29482 10.43978,-11.39778 23.31792,-11.39778c12.87813,0 23.31792,5.10296 23.31792,11.39778c0,6.29482 -10.43978,11.39778 -23.31792,11.39778c-12.87813,0 -23.31792,-5.10296 -23.31792,-11.39778z" fill="#d6d1ff"/></g><path d="M10.37049,66.201c0,-2.30791 2.19834,-4.17884 4.91013,-4.17884c2.71179,0 4.91013,1.87093 4.91013,4.17884c0,2.30791 -2.19834,4.17884 -4.91013,4.17884c-2.71179,0 -4.91013,-1.87093 -4.91013,-4.17884z" fill="#d2d2ff"/><path d="M280.37567,66.38905c0,-2.30791 2.19834,-4.17884 4.91013,-4.17884c2.71179,0 4.91013,1.87093 4.91013,4.17884c0,2.30791 -2.19834,4.17884 -4.91013,4.17884c-2.71179,0 -4.91013,-1.87093 -4.91013,-4.17884z" fill="#8b87e8"/><path d="M478.13919,395.06512c-91.80667,-4.53569 -162.72648,-2.49056 -249.75871,-2.61177c-78.99211,-0.07366 -154.48952,-1.2494 -241.13986,3.01921v-137.26439h490.89857z" fill="#ffb0a6"/><g clip-path="url(#clip-3)"><path d="M367.83876,382.85247c0,0 22.10605,-13.82151 47.01193,-16.07808c14.87548,-1.37579 29.87578,-0.31719 44.4106,3.13413l29.79512,-13.91553l6.26826,22.79556l-83.57676,14.62593z" fill="#ffb0a6"/></g></g></g></svg>