<svg width="1244" height="914" viewBox="0 0 1244 914" fill="none" xmlns="http://www.w3.org/2000/svg">
<mask id="mask0_121_424" style="mask-type:luminance" maskUnits="userSpaceOnUse" x="0" y="0" width="1244" height="914">
<path d="M1243.95 0H0V913.513H1243.95V0Z" fill="white"/>
</mask>
<g mask="url(#mask0_121_424)">
<path d="M1243.95 0H0V913.513H1243.95V0Z" fill="#030B35"/>
<path d="M1256.56 0H8.06763V263.021C37.0989 279.115 68.9906 289.392 101.956 293.276C116.781 294.991 171.541 299.831 248.79 266.55C343.788 225.605 337.233 185.264 398.951 161.463C511.093 118.097 570.391 236.799 695.946 204.829C800.928 178.205 815.248 80.6812 909.742 86.3289C956.233 88.951 969.343 110.634 1039.33 115.475C1080.08 118.335 1120.88 110.805 1157.93 93.5902C1199.41 72.9462 1233.77 40.3487 1256.56 0Z" fill="#150C4C"/>
<path d="M335.014 918.454L1244.15 913.815V516.864C1226.49 517.853 1208.93 520.145 1191.61 523.722C999.093 563.054 893.102 760.823 845.603 734.602C826.14 723.912 834.409 685.286 801.634 669.452C787.082 663.252 770.83 662.29 755.648 666.729C675.777 684.58 658.33 761.63 576.946 797.836C502.622 830.31 464.3 794.81 400.161 839.286C371.958 859.59 349.509 886.869 335.014 918.454Z" fill="#150C4C"/>
<path d="M1244.15 913.815H470.351C534.49 852.094 623.235 787.549 710.166 806.812C762.404 818.107 760.589 847.858 812.425 860.061C929.508 887.695 1003.33 749.125 1143.61 760.521C1180.06 763.917 1215.26 775.538 1246.57 794.508L1244.15 913.815Z" fill="#241266"/>
<path d="M10.7905 -3.02539L1156.31 0.000153303C1132.39 16.5933 1105.63 28.6596 1077.35 35.6007C1012.51 51.2327 978.621 28.4403 928.802 25.5156C791.549 17.4475 728.621 170.742 640.984 141.898C593.284 126.266 610.125 80.2779 561.315 54.2582C457.14 -1.31091 326.946 178.709 125.756 160.253C84.8493 156.302 44.9857 145.029 8.06763 126.972L10.7905 -3.02539Z" fill="#241266"/>
<path d="M556.979 542.682C554.59 542.91 552.3 543.743 550.323 545.102C548.734 547.086 547.816 549.522 547.701 552.061C547.517 549.537 546.606 547.12 545.079 545.102C543.102 543.743 540.811 542.91 538.423 542.682C540.83 542.539 543.142 541.698 545.079 540.261C546.634 538.337 547.551 535.975 547.701 533.504C547.816 535.934 548.699 538.264 550.222 540.161C552.169 541.663 554.524 542.541 556.979 542.682Z" fill="#3B0A99"/>
<path d="M1202.1 442.839C1198.46 443.147 1194.98 444.437 1192.01 446.57C1189.69 448.588 1188.89 451.714 1187.78 457.462C1187.56 453.491 1186.12 449.684 1183.64 446.57C1180.65 444.492 1177.18 443.208 1173.56 442.839C1175.5 442.975 1177.44 442.692 1179.26 442.009C1181.08 441.326 1182.73 440.259 1184.1 438.881C1185.46 437.502 1186.52 435.845 1187.19 434.022C1187.86 432.199 1188.13 430.253 1187.98 428.316C1188.2 432.178 1189.61 435.876 1192.01 438.906C1194.94 441.139 1198.43 442.503 1202.1 442.839Z" fill="#C6AEFF"/>
<path d="M448.568 203.518C444.931 203.827 441.445 205.116 438.483 207.25C435.697 210.236 433.992 214.072 433.643 218.142C433.337 214.173 431.863 210.383 429.407 207.25C426.445 205.116 422.96 203.827 419.323 203.518C422.97 203.18 426.456 201.855 429.407 199.686C431.886 196.643 433.365 192.91 433.643 188.996C433.878 192.837 435.247 196.522 437.576 199.585C440.772 201.951 444.596 203.32 448.568 203.518Z" fill="#6835E5"/>
<path d="M802.139 118.904C795.779 119.335 789.666 121.536 784.49 125.258C780.557 128.687 779.145 134.032 777.33 143.915C776.861 137.12 774.367 130.622 770.17 125.258C764.919 121.609 758.795 119.417 752.421 118.904C758.902 118.453 765.125 116.181 770.372 112.349C774.484 107.069 776.909 100.672 777.33 93.9937C777.69 100.59 780.046 106.921 784.087 112.147C789.376 116.003 795.618 118.339 802.139 118.904Z" fill="#6835E5"/>
<path d="M221.864 69.7894C215.49 70.3027 209.366 72.4949 204.115 76.1431C199.775 81.4647 197.265 88.042 196.954 94.9015C196.556 88.0606 194.055 81.5096 189.794 76.1431C184.529 72.5959 178.464 70.4127 172.146 69.7894C178.613 69.4164 184.824 67.1352 189.996 63.2341C194.169 58.0279 196.603 51.6431 196.954 44.98C197.383 51.531 199.733 57.8103 203.711 63.0324C208.984 66.9877 215.288 69.3342 221.864 69.7894Z" fill="#3B0A99"/>
<path d="M80.6777 336.743C76.6919 337.1 72.8682 338.49 69.5845 340.777C66.7645 344.232 65.1686 348.523 65.0463 352.98C64.839 348.54 63.2527 344.274 60.5082 340.777C57.202 338.534 53.39 337.148 49.415 336.743C53.4216 336.564 57.2838 335.195 60.5082 332.81C63.105 329.508 64.6508 325.503 64.9455 321.313C65.1601 325.503 66.6759 329.522 69.2819 332.81C72.5907 335.252 76.567 336.625 80.6777 336.743Z" fill="#5221CC"/>
<path d="M249.294 820.023C242.941 820.486 236.836 822.683 231.646 826.377C227.282 831.645 224.767 838.199 224.486 845.035C223.993 838.227 221.463 831.726 217.225 826.377C212 822.75 205.914 820.559 199.576 820.023C206.052 819.693 212.276 817.408 217.426 813.468C221.561 808.232 224.021 801.87 224.486 795.214C224.859 801.777 227.215 808.071 231.242 813.266C236.464 817.245 242.743 819.595 249.294 820.023Z" fill="#784DFF"/>
<path d="M1188.69 692.245C1184.68 692.505 1180.83 693.905 1177.59 696.279C1175.17 698.396 1174.26 701.725 1173.15 707.977C1172.86 703.707 1171.28 699.627 1168.62 696.279C1165.33 693.991 1161.51 692.601 1157.52 692.245C1161.59 692.027 1165.49 690.586 1168.72 688.11C1171.34 684.862 1172.89 680.88 1173.15 676.713C1173.38 680.822 1174.86 684.764 1177.39 688.009C1180.64 690.54 1184.58 692.018 1188.69 692.245Z" fill="#5221CC"/>
<path d="M630.698 856.128C627.061 856.436 623.575 857.726 620.613 859.86C618.084 862.95 616.601 866.764 616.378 870.752C616.163 866.78 614.718 862.973 612.243 859.86C609.281 857.726 605.795 856.436 602.158 856.128C605.805 855.79 609.292 854.465 612.243 852.296C614.661 849.235 616.07 845.5 616.277 841.605C616.643 845.281 618.041 848.777 620.311 851.691C623.28 854.129 626.884 855.668 630.698 856.128Z" fill="#3B0A99"/>
<path d="M1183.24 69.8901C1180.68 70.1252 1178.22 70.9915 1176.08 72.4113C1174.31 74.5545 1173.25 77.1997 1173.05 79.9752C1172.88 77.2125 1171.86 74.5705 1170.13 72.4113C1168.03 70.904 1165.55 70.0291 1162.97 69.8901C1165.61 69.6713 1168.15 68.7675 1170.33 67.2679C1171.99 65.1522 1172.97 62.5873 1173.16 59.9058C1173.31 62.5752 1174.26 65.1373 1175.88 67.2679C1178.04 68.8029 1180.59 69.7103 1183.24 69.8901Z" fill="#3B0A99"/>
<path d="M893.808 574.248C891.219 574.488 888.728 575.353 886.547 576.77C884.818 578.939 883.765 581.57 883.522 584.333C883.373 581.583 882.388 578.944 880.698 576.77C878.591 575.282 876.112 574.409 873.538 574.248C876.148 574.031 878.653 573.126 880.799 571.626C882.474 569.473 883.49 566.881 883.724 564.163C883.904 566.859 884.848 569.448 886.447 571.626C888.602 573.18 891.155 574.09 893.808 574.248Z" fill="#3B0A99"/>
<path d="M1024.41 383.034C1109.18 383.034 1177.89 314.311 1177.89 229.538C1177.89 144.764 1109.18 76.042 1024.41 76.042C939.636 76.042 870.916 144.764 870.916 229.538C870.916 314.311 939.636 383.034 1024.41 383.034Z" fill="#241266"/>
<path d="M1024.41 359.737C1096.31 359.737 1154.6 301.445 1154.6 229.538C1154.6 157.631 1096.31 99.3389 1024.41 99.3389C952.502 99.3389 894.212 157.631 894.212 229.538C894.212 301.445 952.502 359.737 1024.41 359.737Z" fill="#0390D1"/>
<path d="M1025.82 332.81C1011.92 333.288 998.111 335.111 984.571 338.256C984.571 338.256 994.656 331.6 992.235 326.557C987.193 315.564 947.56 325.952 939.896 328.473C960.609 346.138 986.324 356.888 1013.45 359.22C1040.57 361.553 1067.74 355.352 1091.17 341.483C1069.99 335.115 1047.92 332.187 1025.82 332.81Z" fill="#06B3B3"/>
<path d="M1106.39 272.299C1095.4 285.208 1073.22 276.938 1067.97 307.295C1066.46 316.17 1093.59 305.379 1097.42 313.548C1101.25 321.717 1106.09 326.457 1110.53 327.465C1121.36 317.962 1130.53 306.713 1137.66 294.184C1136.25 281.174 1122.43 253.238 1106.39 272.299Z" fill="#06B3B3"/>
<path d="M948.972 252.129C953.24 235.614 958.527 219.379 964.805 203.518C966.665 198.474 966.665 192.931 964.805 187.886C960.065 177.801 953.308 174.372 950.182 169.027C947.056 163.682 960.267 148.05 955.527 142.302C950.787 136.553 924.365 149.159 916.297 157.228C909.479 167.52 904.149 178.725 900.464 190.509C901.271 198.375 920.634 216.932 912.566 220.764C906.515 223.386 902.481 234.278 909.036 248.599C913.25 257.931 918.102 266.962 923.558 275.627C934.752 291.965 947.257 298.924 963.897 295.293C974.688 293.175 943.224 281.779 948.972 252.129Z" fill="#06B3B3"/>
<path d="M1137.66 249.91C1134.03 249.91 1131.1 257.272 1131.1 259.995C1131.1 262.718 1134.03 267.156 1137.66 267.156C1141.29 267.156 1144.21 262.315 1144.21 259.995C1144.21 257.676 1141.29 249.91 1137.66 249.91Z" fill="#06B3B3"/>
<path d="M1130.8 154.303C1122.46 142.61 1112.24 132.385 1100.55 124.048C1093.3 123.457 1086.05 124.999 1079.67 128.485C1066.26 135.746 1056.88 138.57 1050.22 137.057C1034.39 132.317 1030.05 122.938 1018.46 126.266C1015.76 127.193 1013.31 128.711 1011.28 130.711C1009.25 132.71 1007.69 135.139 1006.72 137.819C1005.76 140.5 1005.4 143.363 1005.69 146.198C1005.97 149.033 1006.89 151.768 1008.37 154.202C1013.21 162.976 1020.27 162.976 1020.98 167.515C1021.68 172.053 1010.89 175.885 1002.32 186.575C998.407 191.481 995.604 197.178 994.107 203.272C992.61 209.366 992.453 215.713 993.647 221.873C995.279 226.987 998.064 231.657 1001.79 235.522C1005.51 239.387 1010.08 242.343 1015.13 244.162C1018.2 245.367 1021.48 245.927 1024.78 245.805C1028.08 245.684 1031.31 244.884 1034.29 243.456C1048.81 234.581 1037.11 207.653 1052.64 195.753C1056.11 193.061 1060.26 191.39 1064.62 190.927C1068.99 190.463 1073.4 191.227 1077.35 193.131C1089.65 201.098 1083.91 227.42 1095.91 231.555C1097.04 232.089 1098.29 232.298 1099.54 232.16C1138.97 226.008 1101.45 216.327 1131.2 204.527C1136.65 202.409 1123.13 221.873 1140.68 225.908C1145.45 226.835 1150.39 226.011 1154.6 223.588C1153.47 198.69 1145.21 174.641 1130.8 154.303Z" fill="#06B3B3"/>
<path opacity="0.5" d="M1183.14 178.709C1181.58 176.548 1179.52 174.809 1177.12 173.647C1174.73 172.485 1172.08 171.937 1169.42 172.053C1164.71 172.128 1160.09 173.302 1155.91 175.482C1141.49 182.743 1131.91 197.871 1107.4 206.645C1095.73 210.7 1083.45 212.713 1071.1 212.595C1064.25 212.628 1057.44 211.572 1050.93 209.469C1061.79 217.484 1075.06 221.541 1088.54 220.966C1108.45 221.114 1127.63 213.478 1141.99 199.686C1149.22 191.21 1158.98 185.272 1169.83 182.743C1172.95 182.743 1174.67 184.155 1174.77 187.08C1174.64 188.311 1174.07 189.453 1173.16 190.29C1172.25 191.127 1171.06 191.599 1169.83 191.618C1167.69 191.539 1165.62 190.838 1163.88 189.601C1164.6 190.925 1165.57 192.095 1166.75 193.042C1167.92 193.989 1169.27 194.696 1170.72 195.122C1172.16 195.549 1173.68 195.685 1175.18 195.525C1176.68 195.365 1178.13 194.912 1179.46 194.19C1180.78 193.468 1181.95 192.492 1182.9 191.319C1183.85 190.145 1184.55 188.796 1184.98 187.349C1185.41 185.902 1185.54 184.386 1185.38 182.886C1185.22 181.386 1184.77 179.933 1184.05 178.608L1183.14 178.709Z" fill="#B6F0FD"/>
<path opacity="0.5" d="M975.091 191.618C979.374 187.053 984.544 183.41 990.283 180.913C996.023 178.416 1002.21 177.117 1008.47 177.095C1016.45 176.876 1024.28 179.285 1030.76 183.953H1028.64C1014.77 184.319 1001.28 188.583 989.714 196.257C981.288 202.516 971.243 206.226 960.771 206.947C956.011 206.984 951.345 205.616 947.358 203.014C943.957 200.381 941.486 196.73 940.307 192.593C939.127 188.456 939.301 184.051 940.803 180.02C937.783 182.461 935.466 185.661 934.091 189.293C932.716 192.925 932.332 196.858 932.979 200.687C933.626 204.516 935.28 208.105 937.771 211.083C940.263 214.062 943.502 216.324 947.157 217.638C952.008 219.823 957.266 220.957 962.586 220.966C974.351 219.931 985.78 216.499 996.168 210.881C1010.04 204.411 1025.13 200.973 1040.44 200.795C1045.78 200.769 1051.1 201.174 1056.37 202.006C1062.72 202.953 1069.12 203.458 1075.54 203.518C1088.21 203.802 1100.8 201.385 1112.46 196.43C1124.13 191.474 1134.61 184.093 1143.2 174.776C1133.1 152.917 1117.1 134.304 1097.02 121.022C1093.95 132.1 1087.12 141.76 1077.69 148.334C1068.26 154.908 1056.83 157.982 1045.38 157.026H1031.97C1017.7 156.225 1003.56 160.045 991.63 167.918C983.413 173.538 977.532 181.966 975.091 191.618ZM1042.36 166.304C1054.52 166.829 1066.69 165.33 1078.36 161.867C1088.01 158.587 1096.38 152.339 1102.26 144.016C1103.94 147.852 1104.39 152.117 1103.54 156.22C1102.7 160.322 1100.59 164.058 1097.52 166.909C1093.92 170.192 1089.71 172.722 1085.12 174.35C1080.53 175.978 1075.66 176.672 1070.8 176.389C1056.19 175.773 1041.85 172.349 1028.54 166.304C1028.54 166.304 1034.39 166.002 1042.36 166.002V166.304Z" fill="#B6F0FD"/>
<path opacity="0.5" d="M916.398 133.124C919.073 133.124 921.638 132.061 923.529 130.17C925.42 128.279 926.483 125.714 926.483 123.039C925.766 124.215 924.779 125.204 923.604 125.923C922.429 126.642 921.1 127.071 919.726 127.174C918.864 127.212 918.012 126.98 917.289 126.51C916.565 126.04 916.007 125.355 915.692 124.552C914.28 120.719 917.608 118.4 924.163 118.4C932.508 118.876 940.686 120.929 948.266 124.451C956.836 128.131 966.067 130.018 975.394 129.998C985.863 130.327 996.251 128.059 1005.63 123.396C1015.01 118.732 1023.09 111.819 1029.15 103.272C1014.82 112.448 998.253 117.539 981.243 117.996H979.327C956.737 117.996 942.417 110.029 928.197 108.516H924.466C920.523 108.006 916.524 108.857 913.131 110.93C909.738 113.002 907.155 116.171 905.809 119.912C905.279 121.51 905.157 123.215 905.454 124.872C905.751 126.528 906.458 128.084 907.511 129.398C908.564 130.711 909.929 131.74 911.481 132.391C913.033 133.042 914.724 133.294 916.398 133.124Z" fill="#B6F0FD"/>
<path opacity="0.5" d="M1107.1 288.536H1105.28C1084.53 290.263 1064.67 297.8 1048 310.285C1031.32 322.77 1018.5 339.698 1010.99 359.132C1014.77 359.635 1018.58 359.837 1022.39 359.737H1024.51C1029.29 359.773 1034.08 359.504 1038.83 358.931C1052.54 327.868 1077.25 315.464 1110.33 315.464C1114.06 315.464 1117.99 315.464 1121.92 315.464C1128.77 308.103 1134.69 299.942 1139.57 291.158C1131.44 289.286 1123.11 288.339 1114.76 288.334L1107.1 288.536Z" fill="#B6F0FD"/>
<path opacity="0.5" d="M1057.79 291.36C1066.03 285.908 1071.99 277.618 1074.53 268.063C1070.24 272.509 1065.1 276.05 1059.42 278.475C1053.74 280.9 1047.63 282.161 1041.45 282.183C1033.49 282.38 1025.67 280.011 1019.16 275.426H1021.28C1035.17 275.057 1048.67 270.756 1060.21 263.021C1068.63 256.72 1078.66 252.942 1089.15 252.129C1093.92 252.043 1098.6 253.415 1102.56 256.062C1105.96 258.695 1108.43 262.346 1109.61 266.483C1110.79 270.62 1110.62 275.025 1109.12 279.056C1112.13 276.603 1114.45 273.394 1115.82 269.756C1117.19 266.118 1117.57 262.181 1116.93 258.346C1116.28 254.512 1114.63 250.918 1112.14 247.93C1109.65 244.942 1106.42 242.667 1102.76 241.338C1097.9 239.2 1092.65 238.068 1087.33 238.01C1075.58 239.091 1064.16 242.521 1053.75 248.095C1039.9 254.612 1024.79 258.053 1009.48 258.18C1004.11 258.152 998.755 257.748 993.445 256.97C987.141 255.969 980.768 255.463 974.385 255.457C961.709 255.148 949.113 257.552 937.443 262.51C925.772 267.467 915.296 274.862 906.717 284.2C916.896 305.704 932.763 324.014 952.602 337.147C964.2 303.261 983.461 301.143 1005.04 301.143H1014.12C1029.35 302.704 1044.68 299.27 1057.79 291.36Z" fill="#B6F0FD"/>
<path opacity="0.5" d="M1007.26 293.377C995.105 292.871 982.947 294.335 971.259 297.714C961.608 300.993 953.242 307.242 947.358 315.565C945.626 311.704 945.152 307.397 946.003 303.252C946.853 299.108 948.986 295.336 952.098 292.47C955.695 289.187 959.913 286.657 964.502 285.029C969.092 283.401 973.961 282.707 978.823 282.99C993.425 283.606 1007.77 287.03 1021.08 293.075C1021.08 293.075 1015.23 293.377 1007.26 293.377Z" fill="#B6F0FD"/>
<path opacity="0.5" d="M969.545 243.355C975.273 243.265 980.992 243.84 986.588 245.069C975.865 238.413 963.398 235.112 950.787 235.589C930.974 235.985 911.923 243.299 896.935 256.264C897.842 260.399 898.952 264.534 900.162 268.568C909.172 260.884 919.396 254.75 930.416 250.415C942.922 245.707 956.181 243.314 969.545 243.355Z" fill="#B6F0FD"/>
<path d="M224.587 393.018C226.87 393.018 228.721 391.167 228.721 388.883C228.721 386.6 226.87 384.749 224.587 384.749C222.303 384.749 220.452 386.6 220.452 388.883C220.452 391.167 222.303 393.018 224.587 393.018Z" fill="#C6AEFF"/>
<path opacity="0.19" d="M469.141 627.095C301.029 567.29 129.488 645.45 78.2574 775.145C42.1541 866.919 68.1726 978.865 140.783 1062.97L-231.444 1053.6L-205.022 517.469C-11.295 339.97 231.948 313.648 362.142 418.635C435.458 477.532 460.367 567.189 469.141 627.095Z" fill="#5745FF"/>
<path opacity="0.19" d="M469.141 627.094C462.859 611.183 452.907 596.981 440.097 585.645C353.368 511.519 113.957 577.173 19.5643 736.922C-60.5084 873.273 -6.25258 1026.97 4.43723 1055.41L-231.444 1053.6C-218.334 933.717 -205.359 813.737 -192.517 693.656C-22.489 469.161 211.779 390.598 349.234 466.942C374.345 480.961 433.038 520.494 469.141 627.094Z" fill="#5745FF"/>
<path d="M853.574 736.173V733.175H855.826V736.173H855.452V733.506H853.952V736.173H853.574ZM856.243 733.922H856.638L857.125 735.203C857.153 735.279 857.178 735.352 857.201 735.422C857.226 735.492 857.248 735.56 857.268 735.627C857.288 735.692 857.303 735.755 857.314 735.816H857.331C857.348 735.746 857.374 735.655 857.411 735.543C857.447 735.429 857.485 735.314 857.524 735.199L857.982 733.922H858.381L857.411 736.484C857.358 736.624 857.295 736.746 857.222 736.85C857.152 736.956 857.065 737.037 856.961 737.093C856.861 737.152 856.737 737.181 856.592 737.181C856.525 737.181 856.466 737.177 856.415 737.169C856.365 737.163 856.322 737.156 856.285 737.148V736.854C856.316 736.859 856.352 736.865 856.394 736.871C856.439 736.876 856.485 736.879 856.533 736.879C856.62 736.879 856.694 736.862 856.756 736.829C856.82 736.798 856.875 736.752 856.919 736.69C856.964 736.631 857.002 736.561 857.033 736.48L857.15 736.182L856.243 733.922ZM860.291 734.233H859.556V736.173H859.191V734.233H858.464V733.922H860.291V734.233ZM861.563 733.88C861.756 733.88 861.921 733.922 862.059 734.006C862.199 734.09 862.305 734.209 862.378 734.363C862.453 734.514 862.491 734.692 862.491 734.897V735.119H860.95C860.955 735.374 861.02 735.569 861.143 735.703C861.269 735.835 861.444 735.9 861.668 735.9C861.811 735.9 861.937 735.888 862.046 735.863C862.158 735.835 862.273 735.795 862.39 735.745V736.068C862.276 736.119 862.162 736.155 862.05 736.178C861.938 736.203 861.805 736.215 861.651 736.215C861.438 736.215 861.249 736.172 861.084 736.085C860.922 735.998 860.794 735.87 860.702 735.699C860.612 735.525 860.568 735.314 860.568 735.065C860.568 734.818 860.608 734.607 860.689 734.43C860.773 734.254 860.89 734.118 861.038 734.023C861.189 733.928 861.364 733.88 861.563 733.88ZM861.559 734.183C861.382 734.183 861.242 734.24 861.139 734.355C861.038 734.467 860.978 734.624 860.958 734.825H862.105C862.105 734.696 862.085 734.584 862.046 734.489C862.007 734.394 861.947 734.32 861.865 734.267C861.787 734.211 861.685 734.183 861.559 734.183ZM866.118 733.922V736.173H863.064V733.922H863.434V735.863H864.404V733.922H864.774V735.863H865.748V733.922H866.118ZM867.707 733.88C867.9 733.88 868.065 733.922 868.203 734.006C868.343 734.09 868.449 734.209 868.522 734.363C868.597 734.514 868.635 734.692 868.635 734.897V735.119H867.094C867.099 735.374 867.164 735.569 867.287 735.703C867.413 735.835 867.588 735.9 867.812 735.9C867.955 735.9 868.081 735.888 868.19 735.863C868.302 735.835 868.417 735.795 868.534 735.745V736.068C868.42 736.119 868.306 736.155 868.194 736.178C868.082 736.203 867.949 736.215 867.795 736.215C867.582 736.215 867.393 736.172 867.228 736.085C867.066 735.998 866.938 735.87 866.846 735.699C866.756 735.525 866.712 735.314 866.712 735.065C866.712 734.818 866.752 734.607 866.833 734.43C866.917 734.254 867.034 734.118 867.182 734.023C867.333 733.928 867.508 733.88 867.707 733.88ZM867.703 734.183C867.526 734.183 867.386 734.24 867.283 734.355C867.182 734.467 867.122 734.624 867.102 734.825H868.249C868.249 734.696 868.229 734.584 868.19 734.489C868.151 734.394 868.091 734.32 868.009 734.267C867.931 734.211 867.829 734.183 867.703 734.183ZM870.111 736.215C869.913 736.215 869.735 736.175 869.578 736.094C869.424 736.012 869.302 735.886 869.213 735.716C869.126 735.545 869.082 735.326 869.082 735.06C869.082 734.783 869.129 734.558 869.221 734.384C869.313 734.211 869.438 734.083 869.595 734.002C869.754 733.921 869.935 733.88 870.137 733.88C870.251 733.88 870.362 733.893 870.468 733.918C870.575 733.94 870.662 733.968 870.729 734.002L870.615 734.309C870.548 734.283 870.47 734.26 870.38 734.237C870.291 734.215 870.207 734.204 870.128 734.204C869.977 734.204 869.852 734.236 869.754 734.3C869.656 734.365 869.584 734.46 869.536 734.586C869.488 734.712 869.465 734.869 869.465 735.056C869.465 735.235 869.488 735.388 869.536 735.514C869.584 735.64 869.655 735.735 869.75 735.8C869.845 735.864 869.964 735.896 870.107 735.896C870.23 735.896 870.338 735.884 870.431 735.858C870.526 735.833 870.613 735.802 870.691 735.766V736.094C870.615 736.133 870.531 736.162 870.439 736.182C870.349 736.204 870.24 736.215 870.111 736.215ZM872.78 734.233H872.045V736.173H871.68V734.233H870.953V733.922H872.78V734.233ZM875.034 734.489C875.034 734.629 874.992 734.738 874.908 734.817C874.824 734.895 874.716 734.948 874.585 734.976V734.993C874.725 735.013 874.846 735.063 874.95 735.144C875.054 735.223 875.105 735.346 875.105 735.514C875.105 735.609 875.087 735.697 875.051 735.779C875.017 735.86 874.964 735.93 874.891 735.989C874.818 736.047 874.725 736.094 874.61 736.127C874.495 736.158 874.356 736.173 874.194 736.173H873.224V733.922H874.19C874.349 733.922 874.492 733.94 874.618 733.977C874.747 734.01 874.848 734.069 874.921 734.153C874.996 734.234 875.034 734.346 875.034 734.489ZM874.723 735.514C874.723 735.385 874.674 735.293 874.576 735.237C874.478 735.181 874.334 735.153 874.144 735.153H873.593V735.875H874.152C874.337 735.875 874.478 735.849 874.576 735.795C874.674 735.739 874.723 735.646 874.723 735.514ZM874.66 734.535C874.66 734.429 874.621 734.352 874.543 734.304C874.467 734.254 874.342 734.229 874.169 734.229H873.593V734.846H874.102C874.284 734.846 874.422 734.821 874.517 734.771C874.613 734.72 874.66 734.642 874.66 734.535ZM875.992 735.296C875.992 735.321 875.991 735.357 875.988 735.405C875.988 735.45 875.987 735.499 875.984 735.552C875.981 735.602 875.978 735.651 875.976 735.699C875.973 735.744 875.97 735.78 875.967 735.808L877.173 733.922H877.626V736.173H877.282V734.846C877.282 734.801 877.282 734.743 877.282 734.67C877.285 734.597 877.287 734.526 877.29 734.456C877.293 734.383 877.296 734.328 877.299 734.292L876.102 736.173H875.644V733.922H875.992V735.296ZM879.212 733.88C879.405 733.88 879.57 733.922 879.708 734.006C879.848 734.09 879.954 734.209 880.027 734.363C880.102 734.514 880.14 734.692 880.14 734.897V735.119H878.599C878.604 735.374 878.669 735.569 878.792 735.703C878.918 735.835 879.093 735.9 879.317 735.9C879.46 735.9 879.586 735.888 879.695 735.863C879.807 735.835 879.922 735.795 880.039 735.745V736.068C879.925 736.119 879.811 736.155 879.699 736.178C879.587 736.203 879.454 736.215 879.3 736.215C879.087 736.215 878.898 736.172 878.733 736.085C878.571 735.998 878.443 735.87 878.351 735.699C878.261 735.525 878.217 735.314 878.217 735.065C878.217 734.818 878.257 734.607 878.338 734.43C878.422 734.254 878.539 734.118 878.687 734.023C878.838 733.928 879.013 733.88 879.212 733.88ZM879.208 734.183C879.031 734.183 878.891 734.24 878.788 734.355C878.687 734.467 878.627 734.624 878.607 734.825H879.754C879.754 734.696 879.734 734.584 879.695 734.489C879.656 734.394 879.596 734.32 879.514 734.267C879.436 734.211 879.334 734.183 879.208 734.183ZM882.396 733.88C882.567 733.88 882.716 733.904 882.842 733.952C882.968 733.996 883.066 734.064 883.136 734.153C883.206 734.24 883.241 734.346 883.241 734.472C883.241 734.61 883.203 734.719 883.127 734.8C883.052 734.878 882.948 734.936 882.816 734.972V734.989C882.906 735.014 882.989 735.049 883.064 735.094C883.14 735.139 883.2 735.198 883.245 735.27C883.292 735.343 883.316 735.437 883.316 735.552C883.316 735.675 883.281 735.787 883.211 735.888C883.144 735.989 883.039 736.068 882.896 736.127C882.756 736.186 882.576 736.215 882.354 736.215C882.248 736.215 882.146 736.21 882.048 736.199C881.953 736.187 881.866 736.171 881.787 736.148C881.712 736.126 881.645 736.099 881.586 736.068V735.737C881.681 735.781 881.793 735.822 881.922 735.858C882.053 735.895 882.196 735.913 882.35 735.913C882.462 735.913 882.563 735.9 882.653 735.875C882.745 735.85 882.818 735.811 882.871 735.758C882.924 735.702 882.951 735.626 882.951 735.531C882.951 735.444 882.927 735.374 882.879 735.321C882.832 735.265 882.76 735.223 882.665 735.195C882.573 735.167 882.454 735.153 882.308 735.153H882.006V734.85H882.249C882.443 734.85 882.597 734.825 882.711 734.775C882.829 734.722 882.888 734.632 882.888 734.506C882.888 734.4 882.843 734.32 882.753 734.267C882.667 734.213 882.541 734.187 882.375 734.187C882.252 734.187 882.143 734.199 882.048 734.225C881.955 734.247 881.853 734.282 881.741 734.33L881.611 734.036C881.731 733.982 881.857 733.943 881.989 733.918C882.121 733.893 882.256 733.88 882.396 733.88ZM884.716 733.884C884.99 733.884 885.193 733.945 885.325 734.065C885.456 734.185 885.522 734.377 885.522 734.64V736.173H885.253L885.182 735.854H885.165C885.101 735.935 885.034 736.004 884.964 736.06C884.896 736.113 884.818 736.152 884.728 736.178C884.642 736.203 884.535 736.215 884.409 736.215C884.275 736.215 884.153 736.192 884.044 736.144C883.937 736.096 883.853 736.024 883.792 735.926C883.73 735.825 883.699 735.699 883.699 735.548C883.699 735.324 883.788 735.151 883.964 735.031C884.14 734.908 884.412 734.841 884.779 734.829L885.161 734.817V734.682C885.161 734.495 885.12 734.365 885.039 734.292C884.958 734.219 884.843 734.183 884.695 734.183C884.577 734.183 884.465 734.201 884.359 734.237C884.252 734.271 884.153 734.31 884.061 734.355L883.947 734.078C884.045 734.024 884.161 733.98 884.296 733.943C884.43 733.904 884.57 733.884 884.716 733.884ZM884.825 735.086C884.545 735.097 884.35 735.142 884.241 735.22C884.135 735.298 884.082 735.409 884.082 735.552C884.082 735.678 884.119 735.77 884.195 735.829C884.273 735.888 884.373 735.917 884.493 735.917C884.684 735.917 884.842 735.865 884.968 735.762C885.094 735.655 885.157 735.493 885.157 735.275V735.073L884.825 735.086ZM886.029 735.212V734.884H887.045V735.212H886.029Z" fill="black"/>
<path d="M923.028 782.331H923.431L922.47 783.414L923.511 784.582H923.083L922.066 783.44V784.582H921.697V782.331H922.066V783.423L923.028 782.331ZM925.795 783.452C925.795 783.64 925.77 783.806 925.719 783.952C925.672 784.095 925.602 784.217 925.509 784.317C925.42 784.418 925.309 784.495 925.178 784.548C925.049 784.599 924.905 784.624 924.745 784.624C924.597 784.624 924.459 784.599 924.333 784.548C924.207 784.495 924.098 784.418 924.006 784.317C923.913 784.217 923.841 784.095 923.787 783.952C923.737 783.806 923.712 783.64 923.712 783.452C923.712 783.203 923.754 782.993 923.838 782.822C923.922 782.649 924.042 782.517 924.199 782.427C924.356 782.335 924.542 782.289 924.758 782.289C924.962 782.289 925.141 782.335 925.295 782.427C925.452 782.517 925.574 782.649 925.661 782.822C925.75 782.993 925.795 783.203 925.795 783.452ZM924.094 783.452C924.094 783.629 924.116 783.783 924.161 783.914C924.209 784.043 924.282 784.142 924.38 784.212C924.478 784.282 924.602 784.317 924.753 784.317C924.905 784.317 925.029 784.282 925.127 784.212C925.225 784.142 925.297 784.043 925.341 783.914C925.389 783.783 925.413 783.629 925.413 783.452C925.413 783.273 925.389 783.12 925.341 782.994C925.294 782.868 925.221 782.772 925.123 782.705C925.028 782.635 924.903 782.6 924.749 782.6C924.52 782.6 924.353 782.675 924.249 782.826C924.146 782.978 924.094 783.186 924.094 783.452ZM926.75 782.331V783.267H927.973V782.331H928.342V784.582H927.973V783.578H926.75V784.582H926.381V782.331H926.75ZM929.378 783.15C929.378 783.281 929.415 783.379 929.488 783.444C929.563 783.505 929.671 783.536 929.811 783.536C929.951 783.536 930.078 783.515 930.193 783.473C930.308 783.428 930.426 783.37 930.546 783.297V782.331H930.916V784.582H930.546V783.578C930.42 783.659 930.295 783.724 930.172 783.771C930.052 783.816 929.906 783.839 929.735 783.839C929.506 783.839 929.327 783.778 929.198 783.658C929.072 783.538 929.009 783.377 929.009 783.175V782.331H929.378V783.15ZM932.5 782.289C932.693 782.289 932.859 782.331 932.996 782.415C933.136 782.499 933.242 782.618 933.315 782.772C933.391 782.923 933.428 783.101 933.428 783.305V783.528H931.887C931.893 783.783 931.957 783.977 932.08 784.112C932.206 784.243 932.381 784.309 932.605 784.309C932.748 784.309 932.874 784.296 932.983 784.271C933.095 784.243 933.21 784.204 933.328 784.154V784.477C933.213 784.527 933.099 784.564 932.987 784.586C932.875 784.611 932.742 784.624 932.588 784.624C932.376 784.624 932.187 784.581 932.021 784.494C931.859 784.407 931.732 784.278 931.639 784.107C931.55 783.934 931.505 783.722 931.505 783.473C931.505 783.227 931.545 783.015 931.627 782.839C931.711 782.663 931.827 782.527 931.975 782.432C932.126 782.336 932.301 782.289 932.5 782.289ZM932.496 782.591C932.32 782.591 932.18 782.649 932.076 782.763C931.975 782.875 931.915 783.032 931.895 783.234H933.042C933.042 783.105 933.022 782.993 932.983 782.898C932.944 782.803 932.884 782.728 932.803 782.675C932.724 782.619 932.622 782.591 932.496 782.591ZM934.371 782.331V783.267H935.593V782.331H935.963V784.582H935.593V783.578H934.371V784.582H934.002V782.331H934.371ZM938.633 783.452C938.633 783.64 938.608 783.806 938.557 783.952C938.51 784.095 938.44 784.217 938.347 784.317C938.258 784.418 938.147 784.495 938.016 784.548C937.887 784.599 937.743 784.624 937.583 784.624C937.435 784.624 937.297 784.599 937.171 784.548C937.045 784.495 936.936 784.418 936.844 784.317C936.751 784.217 936.679 784.095 936.625 783.952C936.575 783.806 936.55 783.64 936.55 783.452C936.55 783.203 936.592 782.993 936.676 782.822C936.76 782.649 936.88 782.517 937.037 782.427C937.194 782.335 937.38 782.289 937.596 782.289C937.8 782.289 937.979 782.335 938.133 782.427C938.29 782.517 938.412 782.649 938.499 782.822C938.588 782.993 938.633 783.203 938.633 783.452ZM936.932 783.452C936.932 783.629 936.954 783.783 936.999 783.914C937.047 784.043 937.12 784.142 937.218 784.212C937.316 784.282 937.44 784.317 937.591 784.317C937.743 784.317 937.867 784.282 937.965 784.212C938.063 784.142 938.135 784.043 938.179 783.914C938.227 783.783 938.251 783.629 938.251 783.452C938.251 783.273 938.227 783.12 938.179 782.994C938.132 782.868 938.059 782.772 937.961 782.705C937.866 782.635 937.741 782.6 937.587 782.6C937.358 782.6 937.191 782.675 937.087 782.826C936.984 782.978 936.932 783.186 936.932 783.452ZM939.546 783.738H939.307L939.202 781.583H939.651L939.546 783.738ZM939.164 784.355C939.164 784.252 939.189 784.179 939.24 784.137C939.29 784.095 939.352 784.074 939.425 784.074C939.495 784.074 939.555 784.095 939.605 784.137C939.658 784.179 939.685 784.252 939.685 784.355C939.685 784.456 939.658 784.529 939.605 784.574C939.555 784.618 939.495 784.641 939.425 784.641C939.352 784.641 939.29 784.618 939.24 784.574C939.189 784.529 939.164 784.456 939.164 784.355Z" fill="black"/>
</g>
</svg>
