<svg width="148" height="204" viewBox="0 0 148 204" fill="none" xmlns="http://www.w3.org/2000/svg">
<path d="M133 65.4785C133 144.147 107.256 130.957 75.5 130.957C43.7436 130.957 18 145.56 18 65.4785C18 29.3157 43.7436 0 75.5 0C107.256 0 133 29.3157 133 65.4785Z" fill="#DEE9FF"/>
<path d="M32 128C32 125.239 34.2386 123 37 123H117C119.761 123 122 125.239 122 128V131C122 132.105 121.105 133 120 133H34C32.8954 133 32 132.105 32 131V128Z" fill="#BFD5FF"/>
<path d="M113 58.1642C113 108.822 95.763 100.328 74.5 100.328C53.237 100.328 36 109.732 36 58.1642C36 34.8776 53.237 16 74.5 16C95.763 16 113 34.8776 113 58.1642Z" fill="#3B459E"/>
<path d="M113 81C113 77.134 116.134 74 120 74H139C142.866 74 146 77.134 146 81V128H113V81Z" fill="#9D87FA"/>
<path d="M3 81C3 77.134 6.13401 74 10 74H29C32.866 74 36 77.134 36 81V128H3V81Z" fill="#9D87FA"/>
<ellipse cx="129.5" cy="128.5" rx="16.5" ry="4.5" fill="#362F6B"/>
<ellipse cx="19.5" cy="128.5" rx="16.5" ry="4.5" fill="#362F6B"/>
<ellipse cx="10.2917" cy="18.5" rx="10.2917" ry="18.5" transform="matrix(1 -8.74228e-08 -8.74228e-08 -1 9.5 167)" fill="#FF4B4B"/>
<path d="M21.9774 130.757C28.9649 133.139 38 141.698 38 163.825C38 183.959 29.3427 197.369 23.1174 203.53C21.7338 204.9 20.1176 203.1 20.1176 200.379L20.1176 193.423C20.1176 187.936 18.7631 177.92 14.9988 173.754C13.0765 171.626 10.9976 174.811 10.7652 178.693L10.5729 181.882C10.3494 185.588 8.132 187.837 6.39294 185.577C3.26576 181.524 -2.58701e-06 174.408 -3.51183e-06 163.829C-5.87746e-06 136.77 11.8225 130 17.7326 130C18.0783 130 18.4389 130.019 18.8145 130.057C15.8952 130.479 11.1765 133.562 11.1765 143.532C11.1765 151.333 14.5182 156.603 17.0575 159.172C17.7415 159.857 18.5395 158.962 18.5395 157.611L18.5395 155.366C18.5395 153.654 18.9307 150.971 19.8583 149.137C20.9089 147.059 22.4491 149.236 22.572 151.968C22.6122 152.828 23.1219 153.376 23.56 152.942C24.9928 151.515 26.8235 148.471 26.8235 143.532C26.8235 135.738 24.2999 132.154 21.9774 130.757Z" fill="#FFCC00"/>
<ellipse cx="10.2917" cy="18.5" rx="10.2917" ry="18.5" transform="matrix(1 -8.74228e-08 -8.74228e-08 -1 119.5 167)" fill="#FF4B4B"/>
<path d="M131.977 130.757C138.965 133.139 148 141.698 148 163.825C148 183.959 139.343 197.369 133.117 203.53C131.734 204.9 130.118 203.1 130.118 200.379L130.118 193.423C130.118 187.936 128.763 177.92 124.999 173.754C123.076 171.626 120.998 174.811 120.765 178.693L120.573 181.882C120.349 185.588 118.132 187.837 116.393 185.577C113.266 181.524 110 174.408 110 163.829C110 136.77 121.822 130 127.733 130C128.078 130 128.439 130.019 128.814 130.057C125.895 130.479 121.176 133.562 121.176 143.532C121.176 151.333 124.518 156.603 127.058 159.172C127.742 159.857 128.54 158.962 128.54 157.611L128.54 155.366C128.54 153.654 128.931 150.971 129.858 149.137C130.909 147.059 132.449 149.236 132.572 151.968C132.612 152.828 133.122 153.376 133.56 152.942C134.993 151.515 136.824 148.471 136.824 143.532C136.824 135.738 134.3 132.154 131.977 130.757Z" fill="#FFCC00"/>
<rect x="50" y="125" width="52" height="7" rx="3.5" fill="#362F6B"/>
<rect x="124" y="84" width="11" height="61" rx="2" fill="#8AEB5E"/>
<rect x="13" y="84" width="11" height="61" rx="2" fill="#8AEB5E"/>
<rect x="126" y="84" width="7" height="61" fill="#65C752"/>
<rect x="15" y="84" width="7" height="61" fill="#65C752"/>
</svg>
