<svg width="105" height="61" viewBox="0 0 105 61" fill="none" xmlns="http://www.w3.org/2000/svg">
<path d="M48.55 25.72C52.98 25.72 56.57 31.48 56.57 38.58C56.57 45.68 52.98 51.44 48.55 51.44H21.75V25.72H48.55Z" fill="#9D87FA"/>
<path d="M21.75 51.44C26.1793 51.44 29.77 45.6824 29.77 38.58C29.77 31.4776 26.1793 25.72 21.75 25.72C17.3207 25.72 13.73 31.4776 13.73 38.58C13.73 45.6824 17.3207 51.44 21.75 51.44Z" fill="#8A76DB"/>
<path d="M21.75 48.87C25.2349 48.87 28.06 44.2631 28.06 38.58C28.06 32.897 25.2349 28.29 21.75 28.29C18.2651 28.29 15.44 32.897 15.44 38.58C15.44 44.2631 18.2651 48.87 21.75 48.87Z" fill="#362F6B"/>
<path d="M44.27 25.72L54.15 0.0100098H49.87C49.21 0.0100098 48.57 0.300011 48.13 0.800011L26.31 25.72H44.27Z" fill="#65C752"/>
<path d="M48.55 25.72L56.34 3.06C56.85 1.56 55.74 0 54.16 0C53.5 0 52.86 0.290001 52.42 0.790001L30.59 25.72H48.55Z" fill="#8AEB5E"/>
<path d="M28.67 60.01H59.87C66.97 60.01 72.73 54.25 72.73 47.15H15.82C15.82 54.25 21.57 60.01 28.67 60.01Z" fill="#8AEB5E"/>
<path d="M4 47.15H88.65V38.58H0V43.15C0 45.36 1.79 47.15 4 47.15Z" fill="#BFD5FF"/>
<path d="M15.82 30.01H88.65V38.58H0C0 38.58 3.38 30.01 15.82 30.01Z" fill="#DEE9FF"/>
<path d="M15.82 30.01H63.48C63.48 30.01 56.3 17.15 39.12 17.15C23.95 17.15 15.82 30.01 15.82 30.01Z" fill="#3B459E"/>
<path d="M96.67 25.72C101.1 25.72 104.69 31.48 104.69 38.58C104.69 45.68 101.1 51.44 96.67 51.44H69.88V25.72H96.67Z" fill="#9D87FA"/>
<path d="M69.88 51.44C74.3093 51.44 77.9 45.6824 77.9 38.58C77.9 31.4776 74.3093 25.72 69.88 25.72C65.4507 25.72 61.86 31.4776 61.86 38.58C61.86 45.6824 65.4507 51.44 69.88 51.44Z" fill="#8A76DB"/>
<path d="M69.88 48.87C73.3649 48.87 76.19 44.2631 76.19 38.58C76.19 32.897 73.3649 28.29 69.88 28.29C66.3951 28.29 63.57 32.897 63.57 38.58C63.57 44.2631 66.3951 48.87 69.88 48.87Z" fill="#362F6B"/>
<path d="M92.4 25.72L102.28 0.0100098H98C97.34 0.0100098 96.7 0.300011 96.26 0.800011L74.44 25.72H92.4Z" fill="#65C752"/>
<path d="M96.67 25.72L104.46 3.06C104.97 1.56 103.86 0 102.28 0C101.62 0 100.98 0.290001 100.54 0.790001L78.72 25.72H96.67Z" fill="#8AEB5E"/>
</svg>
