<svg width="103" height="60" viewBox="0 0 103 60" fill="none" xmlns="http://www.w3.org/2000/svg">
<path d="M91.43 0H88.57C87.47 0 86.57 0.9 86.57 2V27.43H93.43V2C93.43 0.9 92.53 0 91.43 0Z" fill="#8AEB5E"/>
<path d="M14.29 0H11.43C10.33 0 9.42999 0.9 9.42999 2V27.43H16.29V2C16.29 0.9 15.39 0 14.29 0Z" fill="#8AEB5E"/>
<path d="M85.71 38.5699H17.14V47.1399H85.71V38.5699Z" fill="#8A76DB"/>
<path d="M90 51.43C97.1024 51.43 102.86 45.6723 102.86 38.57C102.86 31.4676 97.1024 25.71 90 25.71C82.8976 25.71 77.14 31.4676 77.14 38.57C77.14 45.6723 82.8976 51.43 90 51.43Z" fill="#8A76DB"/>
<path d="M90 48.8599C95.683 48.8599 100.29 44.2529 100.29 38.5699C100.29 32.8869 95.683 28.2799 90 28.2799C84.317 28.2799 79.71 32.8869 79.71 38.5699C79.71 44.2529 84.317 48.8599 90 48.8599Z" fill="#362F6B"/>
<path d="M12.86 51.43C19.9624 51.43 25.72 45.6723 25.72 38.57C25.72 31.4676 19.9624 25.71 12.86 25.71C5.75762 25.71 0 31.4676 0 38.57C0 45.6723 5.75762 51.43 12.86 51.43Z" fill="#8A76DB"/>
<path d="M12.86 48.8599C18.543 48.8599 23.15 44.2529 23.15 38.5699C23.15 32.8869 18.543 28.2799 12.86 28.2799C7.177 28.2799 2.57001 32.8869 2.57001 38.5699C2.57001 44.2529 7.177 48.8599 12.86 48.8599Z" fill="#362F6B"/>
<path d="M73.14 47.1399H29.72C27.51 47.1399 25.72 45.3499 25.72 43.1399V38.5699H77.15V43.1399C77.14 45.3499 75.35 47.1399 73.14 47.1399Z" fill="#BFD5FF"/>
<path d="M68.57 30H34.29C29.56 30 25.72 33.84 25.72 38.57H77.15C77.14 33.84 73.31 30 68.57 30Z" fill="#DEE9FF"/>
<path d="M51.43 60C44.33 60 38.57 54.24 38.57 47.14H64.28C64.29 54.24 58.53 60 51.43 60Z" fill="#8AEB5E"/>
<path d="M50.57 17.14C64.29 17.14 67.72 30 67.72 30H33.43C33.43 30 38.57 17.14 50.57 17.14Z" fill="#3B459E"/>
</svg>
