<svg width="102" height="60" viewBox="0 0 102 60" fill="none" xmlns="http://www.w3.org/2000/svg">
<path d="M59.51 25.71H92.94V51.42H59.51C57.81 51.42 56.44 45.66 56.44 38.56C56.44 31.47 57.82 25.71 59.51 25.71Z" fill="#9D87FA"/>
<path d="M92.95 51.43C94.6455 51.43 96.02 45.6723 96.02 38.57C96.02 31.4676 94.6455 25.71 92.95 25.71C91.2545 25.71 89.88 31.4676 89.88 38.57C89.88 45.6723 91.2545 51.43 92.95 51.43Z" fill="#8A76DB"/>
<path d="M92.95 49.7101C94.1761 49.7101 95.17 44.7225 95.17 38.5701C95.17 32.4176 94.1761 27.4301 92.95 27.4301C91.7239 27.4301 90.73 32.4176 90.73 38.5701C90.73 44.7225 91.7239 49.7101 92.95 49.7101Z" fill="#362F6B"/>
<path d="M93.48 25.71L101.11 2.24C101.47 1.13 100.64 0 99.48 0H97.84L68.41 25.71H93.48Z" fill="#65C752"/>
<path d="M91.96 25.71L99.59 2.24C99.95 1.13 99.12 0 97.96 0H97.84C97.23 0 96.63 0.220001 96.17 0.620001L66.89 25.72H91.96V25.71Z" fill="#8AEB5E"/>
<path d="M30.42 60H72.03C79.13 60 84.89 54.24 84.89 47.14H17.57C17.57 54.24 23.32 60 30.42 60Z" fill="#8AEB5E"/>
<path d="M90.66 38.5701H0V43.1401C0 45.3501 1.79 47.1401 4 47.1401H90.66V38.5701Z" fill="#BFD5FF"/>
<path d="M17.49 30H90.66V38.57H0C0 38.57 5.17 30 17.49 30Z" fill="#DEE9FF"/>
<path d="M91.02 47.14H87.72C83.3 47.14 79.72 43.56 79.72 39.14V38C79.72 33.58 83.3 30 87.72 30H91.02C95.44 30 99.02 33.58 99.02 38V39.14C99.02 43.56 95.44 47.14 91.02 47.14Z" fill="#BFD5FF"/>
<path d="M94.57 43.71H90.12C87.91 43.71 86.12 41.92 86.12 39.71V37.42C86.12 35.21 87.91 33.42 90.12 33.42H94.57C96.78 33.42 98.57 35.21 98.57 37.42V39.71C98.57 41.92 96.78 43.71 94.57 43.71Z" fill="#362F6B"/>
<path d="M42.78 17.14C25.92 17.14 17.49 30 17.49 30H68.06C68.06 30 59.15 17.14 42.78 17.14Z" fill="#3B459E"/>
<path d="M43.21 25.71H76.64V51.42H43.21C41.51 51.42 40.14 45.66 40.14 38.56C40.14 31.47 41.51 25.71 43.21 25.71Z" fill="#9D87FA"/>
<path d="M76.65 51.43C78.3455 51.43 79.72 45.6723 79.72 38.57C79.72 31.4676 78.3455 25.71 76.65 25.71C74.9545 25.71 73.58 31.4676 73.58 38.57C73.58 45.6723 74.9545 51.43 76.65 51.43Z" fill="#8A76DB"/>
<path d="M76.65 49.7101C77.8761 49.7101 78.87 44.7225 78.87 38.5701C78.87 32.4176 77.8761 27.4301 76.65 27.4301C75.4239 27.4301 74.43 32.4176 74.43 38.5701C74.43 44.7225 75.4239 49.7101 76.65 49.7101Z" fill="#362F6B"/>
<path d="M77.18 25.71L84.81 2.24C85.17 1.13 84.34 0 83.18 0H81.54L52.11 25.71H77.18Z" fill="#65C752"/>
<path d="M75.66 25.71L83.29 2.24C83.65 1.13 82.82 0 81.66 0H81.54C80.93 0 80.33 0.220001 79.87 0.620001L50.59 25.72H75.66V25.71Z" fill="#8AEB5E"/>
</svg>
