<svg width="108" height="60" viewBox="0 0 108 60" fill="none" xmlns="http://www.w3.org/2000/svg">
<path d="M97.23 26.15L100.78 1.96C100.93 0.929999 100.13 0 99.08 0H94.62L91.16 25.71L97.23 26.15Z" fill="#65C752"/>
<path d="M96.32 1.96L92.87 25.71H81.68L92.72 1.01C93 0.39 93.61 0 94.29 0H94.63C95.67 0 96.47 0.929999 96.32 1.96Z" fill="#8AEB5E"/>
<path d="M81.04 25.71H95.96V51.42H81.04C74.65 51.42 69.46 45.66 69.46 38.56C69.46 31.47 74.64 25.71 81.04 25.71Z" fill="#9D87FA"/>
<path d="M95.96 51.43C102.355 51.43 107.54 45.6723 107.54 38.57C107.54 31.4676 102.355 25.71 95.96 25.71C89.5645 25.71 84.38 31.4676 84.38 38.57C84.38 45.6723 89.5645 51.43 95.96 51.43Z" fill="#8A76DB"/>
<path d="M95.96 48.86C100.931 48.86 104.96 44.253 104.96 38.57C104.96 32.887 100.931 28.28 95.96 28.28C90.9894 28.28 86.96 32.887 86.96 38.57C86.96 44.253 90.9894 48.86 95.96 48.86Z" fill="#362F6B"/>
<path d="M42.02 17.14C24.66 17.14 20.95 30 20.95 30H63.1C63.1 30 59.47 17.14 42.02 17.14Z" fill="#3B459E"/>
<path d="M9.42 38.57H63.09V30H20.95C11.77 30 9.42 38.57 9.42 38.57Z" fill="#DEE9FF"/>
<path d="M9.42 38.5701H63.09V47.1401H13.42C11.21 47.1401 9.42 45.3501 9.42 43.1401V38.5701Z" fill="#BFD5FF"/>
<path d="M33.8 60H50.24C57.34 60 63.1 54.24 63.1 47.14H20.95C20.95 54.24 26.7 60 33.8 60Z" fill="#8AEB5E"/>
<path d="M46.08 47.14H80.11C84.53 47.14 88.11 43.56 88.11 39.14V38C88.11 33.58 84.53 30 80.11 30H46.08C41.66 30 38.08 33.58 38.08 38V39.14C38.08 43.56 41.66 47.14 46.08 47.14Z" fill="#BFD5FF"/>
<path d="M56.04 43.71H80.63C82.84 43.71 84.63 41.92 84.63 39.71V37.42C84.63 35.21 82.84 33.42 80.63 33.42H56.04C53.83 33.42 52.04 35.21 52.04 37.42V39.71C52.04 41.92 53.83 43.71 56.04 43.71Z" fill="#362F6B"/>
<path d="M27.78 26.15L31.33 1.96C31.47 0.929999 30.67 0 29.63 0H25.17L21.71 25.71L27.78 26.15Z" fill="#65C752"/>
<path d="M26.86 1.96L23.41 25.71H12.23L23.27 1.01C23.54 0.4 24.16 0 24.83 0H25.17C26.21 0 27.01 0.929999 26.86 1.96Z" fill="#8AEB5E"/>
<path d="M11.58 25.71H26.5V51.42H11.58C5.19 51.42 0 45.66 0 38.56C0.01 31.47 5.19 25.71 11.58 25.71Z" fill="#9D87FA"/>
<path d="M26.5 51.43C32.8955 51.43 38.08 45.6723 38.08 38.57C38.08 31.4676 32.8955 25.71 26.5 25.71C20.1045 25.71 14.92 31.4676 14.92 38.57C14.92 45.6723 20.1045 51.43 26.5 51.43Z" fill="#8A76DB"/>
<path d="M26.5 48.86C31.4706 48.86 35.5 44.253 35.5 38.57C35.5 32.887 31.4706 28.28 26.5 28.28C21.5294 28.28 17.5 32.887 17.5 38.57C17.5 44.253 21.5294 48.86 26.5 48.86Z" fill="#362F6B"/>
</svg>
