<svg width="159" height="225" viewBox="0 0 159 225" fill="none" xmlns="http://www.w3.org/2000/svg">
<path d="M134 65.4785C134 144.147 108.256 130.957 76.5 130.957C44.7436 130.957 19 145.56 19 65.4785C19 29.3157 44.7436 0 76.5 0C108.256 0 134 29.3157 134 65.4785Z" fill="#DEE9FF"/>
<path d="M33 128C33 125.239 35.2386 123 38 123H118C120.761 123 123 125.239 123 128V131C123 132.105 122.105 133 121 133H35C33.8954 133 33 132.105 33 131V128Z" fill="#BFD5FF"/>
<path d="M114 58.1642C114 108.822 96.763 100.328 75.5 100.328C54.237 100.328 37 109.732 37 58.1642C37 34.8776 54.237 16 75.5 16C96.763 16 114 34.8776 114 58.1642Z" fill="#3B459E"/>
<path d="M114 81C114 77.134 117.134 74 121 74H140C143.866 74 147 77.134 147 81V128H114V81Z" fill="#9D87FA"/>
<path d="M4 81C4 77.134 7.13401 74 11 74H30C33.866 74 37 77.134 37 81V128H4V81Z" fill="#9D87FA"/>
<ellipse cx="130.5" cy="128.5" rx="16.5" ry="4.5" fill="#362F6B"/>
<ellipse cx="20.5" cy="128.5" rx="16.5" ry="4.5" fill="#362F6B"/>
<ellipse cx="132.387" cy="154.691" rx="14.0052" ry="25.1569" transform="rotate(175.483 132.387 154.691)" fill="#FF4B4B"/>
<path d="M113.361 173.769C112.937 168.395 112.977 163.434 113.662 158.423C114.347 153.412 115.532 149.263 117.146 145.08C118.797 141.344 120.697 138.04 123.133 136.045C124.136 135.064 125.354 134.067 126.607 133.517L125.998 134.016C125.998 134.016 121.733 140.211 121.65 152.835C122.105 164.065 127.005 168.635 127.005 168.635C127.005 168.635 128.872 162.179 132.094 161.924C137.249 161.517 137.805 179.498 137.805 179.498C137.805 179.498 144.865 170.378 143.45 152.465C142.566 141.269 136.309 133.201 136.309 133.201C136.988 133.598 137.883 133.978 138.563 134.375C141.282 135.963 143.677 138.928 145.894 142.358C148.11 145.788 149.967 150.147 151.43 154.989C152.894 159.83 153.712 164.722 154.137 170.096C155.517 187.562 146.981 205.36 146.981 205.36C146.981 205.36 145.06 191.993 140.12 192.383C131.099 193.096 136.691 222.846 136.691 222.846C136.691 222.846 127.751 213.639 123.265 186.956C118.86 188.656 120.245 200.713 120.245 200.713C120.245 200.713 114.494 188.099 113.361 173.769Z" fill="#FFCC00"/>
<ellipse cx="22.291" cy="152.477" rx="14.0052" ry="23.9392" transform="rotate(175.483 22.291 152.477)" fill="#FF4B4B"/>
<path d="M3.19866 170.709C2.79462 165.595 2.85384 160.874 3.55744 156.101C4.26104 151.329 5.46157 147.374 7.09169 143.386C8.75549 139.824 10.6677 136.671 13.1106 134.763C14.1172 133.826 15.3387 132.872 16.5938 132.344L15.9831 132.821C15.9831 132.821 11.6953 138.734 11.5641 150.752C11.9762 161.439 16.8573 165.771 16.8573 165.771C16.8573 165.771 18.7487 159.618 21.9706 159.363C27.1257 158.956 27.6133 176.07 27.6133 176.07C27.6133 176.07 34.7062 167.362 33.3594 150.316C32.5176 139.662 26.2932 132.006 26.2932 132.006C26.9713 132.382 27.8641 132.74 28.5422 133.115C31.2544 134.616 33.638 137.429 35.8405 140.686C38.0431 143.943 39.8833 148.085 41.3277 152.688C42.772 157.291 43.572 161.945 43.976 167.059C45.2892 183.679 36.6881 200.653 36.6881 200.653C36.6881 200.653 34.8188 187.937 29.8785 188.327C20.8571 189.04 26.3349 217.338 26.3349 217.338C26.3349 217.338 17.432 208.607 13.049 183.224C8.63935 184.859 9.97803 196.332 9.97803 196.332C9.97803 196.332 4.27611 184.346 3.19866 170.709Z" fill="#FFCC00"/>
<rect x="51" y="125" width="52" height="7" rx="3.5" fill="#362F6B"/>
<rect x="125" y="84" width="11" height="61" rx="2" fill="#8AEB5E"/>
<rect x="14" y="84" width="11" height="61" rx="2" fill="#8AEB5E"/>
<rect x="127" y="84" width="7" height="61" fill="#65C752"/>
<rect x="16" y="84" width="7" height="61" fill="#65C752"/>
</svg>
