<svg width="143" height="145" viewBox="0 0 143 145" fill="none" xmlns="http://www.w3.org/2000/svg">
<path d="M130 65.4785C130 144.147 104.256 130.957 72.5 130.957C40.7436 130.957 15 145.56 15 65.4785C15 29.3157 40.7436 0 72.5 0C104.256 0 130 29.3157 130 65.4785Z" fill="#DEE9FF"/>
<path d="M29 128C29 125.239 31.2386 123 34 123H114C116.761 123 119 125.239 119 128V131C119 132.105 118.105 133 117 133H31C29.8954 133 29 132.105 29 131V128Z" fill="#BFD5FF"/>
<path d="M110 58.1642C110 108.822 92.763 100.328 71.5 100.328C50.237 100.328 33 109.732 33 58.1642C33 34.8776 50.237 16 71.5 16C92.763 16 110 34.8776 110 58.1642Z" fill="#3B459E"/>
<path d="M110 81C110 77.134 113.134 74 117 74H136C139.866 74 143 77.134 143 81V128H110V81Z" fill="#9D87FA"/>
<path d="M0 81C0 77.134 3.13401 74 7 74H26C29.866 74 33 77.134 33 81V128H0V81Z" fill="#9D87FA"/>
<ellipse cx="126.5" cy="128.5" rx="16.5" ry="4.5" fill="#362F6B"/>
<ellipse cx="16.5" cy="128.5" rx="16.5" ry="4.5" fill="#362F6B"/>
<rect x="47" y="125" width="52" height="7" rx="3.5" fill="#362F6B"/>
<rect x="121" y="84" width="11" height="61" rx="2" fill="#8AEB5E"/>
<rect x="10" y="84" width="11" height="61" rx="2" fill="#8AEB5E"/>
<rect x="123" y="84" width="7" height="61" fill="#65C752"/>
<rect x="12" y="84" width="7" height="61" fill="#65C752"/>
</svg>
